<svg version="1.1" xmlns="http://www.w3.org/2000/svg" style="display: block;" viewBox="0 0 2048 2048" width="1024" height="1024" preserveAspectRatio="none">
<path transform="translate(0,0)" fill="rgb(0,0,0)" d="M 439.054 390.607 C 465.969 393.494 478.749 413.777 477.208 439.627 C 482.273 449.081 485.108 454.006 486.745 464.581 C 484.336 467.448 480.374 470.979 477.569 473.639 C 475.083 485.087 477.73 487.082 470.389 497.4 C 464.893 497.948 454.191 498.318 450.536 502.783 C 455.832 511.456 494.061 514.443 503.354 527.085 C 519.325 549.208 521.89 580.042 532.492 605.096 C 534.106 608.912 537.674 626.569 544.02 622.571 C 561.53 611.539 573.842 604.445 595.314 607.355 C 612.82 619.035 617.095 637.407 622.417 656.574 C 664.051 653.422 710.401 656.945 752.42 656.2 C 763.876 655.997 776.066 657.689 787.753 657.749 C 802.764 684.315 806.621 709.339 815.475 738.638 L 847.19 841.807 C 852.818 860.533 857.717 880.013 863.545 898.465 C 891.685 922.964 937.857 942.323 962.426 967.869 C 973.738 979.632 1002.49 1179.28 1018.81 1219.44 L 1019.21 1218.73 C 1026.79 1204.61 1031.5 1189.22 1038.12 1174.49 C 1061.08 1122.26 1083.37 1069.74 1104.98 1016.94 C 1101.04 995.43 1096.75 973.987 1092.12 952.616 C 1087.54 932.245 1080.64 903.307 1079.25 882.996 C 1085.36 879.465 1122.52 854.998 1124.3 850.876 C 1123.95 847.572 1123.39 845.332 1124.47 842.212 C 1133.92 836.009 1160.48 878.024 1166.99 885.765 C 1180.94 858.58 1189.36 826.069 1203.44 798.816 C 1208.41 789.196 1241.85 784.338 1252.97 781.918 L 1324.27 766.258 C 1324.07 760.08 1324.3 753.602 1324.74 747.429 C 1326.9 717.17 1328.34 686.515 1331.08 656.341 C 1345.39 653.841 1360.21 651.885 1365.43 665.27 C 1366.3 667.489 1398.31 662.337 1402.37 661.649 C 1404.4 643.24 1404.25 620.515 1405.26 601.845 L 1407.25 559.602 C 1407.52 553.094 1408.48 548.772 1408.21 542.057 C 1414.42 538.884 1417.94 537.585 1424.81 536.6 C 1441.26 500.284 1479.53 488.274 1514.91 478.226 C 1535.96 472.248 1547.62 467.491 1570.51 471.235 C 1574.89 471.952 1580.32 475.792 1584.46 476.902 C 1607.63 483.118 1630.78 489.082 1651.11 502.489 C 1666.28 512.358 1672.48 521.366 1681.37 536.924 C 1688.18 538.265 1690.37 538.9 1696.82 541.33 C 1698.68 579.585 1702.42 623.45 1703.08 661.187 C 1709.61 662.122 1736.74 667.774 1740.3 665.706 C 1741.08 661.845 1741.12 658.821 1743.9 656.259 C 1748.1 654.51 1764.28 654.677 1769.34 655.684 C 1772.56 656.327 1774.18 662.497 1775.63 666.118 C 1794.43 664.1 1817.11 656.581 1837.16 653.834 L 1839.14 653.573 C 1838.7 669.756 1840.11 690.773 1840.28 707.481 L 1841.05 838.5 L 1841.98 1484.99 C 1828.68 1486.84 1794.39 1485.72 1779.74 1485.63 L 1678.09 1485.64 L 1355.85 1486.27 L 206.043 1487 L 206.349 937.361 C 206.069 871.22 206.137 805.078 206.553 738.937 C 206.689 723.474 206.71 708.01 206.617 692.547 C 206.56 682.598 206.008 667.242 207.536 657.776 C 214.678 654.666 300.307 655.969 314.049 656.632 C 317.307 631.853 329.377 542.593 344.515 526.593 C 351.715 518.984 367.43 515.6 377.229 512.84 C 382.679 511.305 390.719 510.229 395.636 507.753 C 396.473 507.332 398.775 503.392 399.344 502.563 C 399.045 496.108 399.789 482.186 397.646 477.302 C 387.311 453.754 372.26 429.619 393.899 406.141 C 406.209 392.784 420.954 390.69 439.054 390.607 z M 355.488 656.846 C 361.944 657.113 372.933 658.664 377.392 654.949 C 377.545 652.551 377.709 653.274 377.118 651.043 C 377.214 648.048 377.278 648.153 376.448 645.298 C 375.262 632.838 373.434 620.099 369.854 608.088 C 365.083 623.48 359.275 641.207 355.488 656.846 z"/>
<path transform="translate(0,0)" fill="rgb(0,0,0)" d="M 715.963 730.147 C 738.413 715.887 752.74 705.838 773.277 688.83 C 786.951 718.843 795.23 762.314 805.78 794.226 C 819.202 834.823 832.205 876.824 841.462 918.537 C 843.314 926.881 843.566 941.623 844.291 950.627 C 845.888 971.14 847.636 991.641 849.533 1012.13 C 844.025 1020.76 835.082 1032.36 828.909 1040.99 C 820.197 1053.15 807.835 1073.06 797.992 1083.86 C 802.099 1086.53 806.612 1089.87 810.674 1092.74 C 813.659 1095.01 815.517 1096.99 819.166 1097.41 C 828.256 1091.43 869.499 1028.78 877.233 1017.41 C 874.54 990.389 871.792 961.049 869.889 933.907 C 885.958 948.619 921.861 971.199 940.958 983.352 L 940.975 1100.42 C 940.983 1123.43 943.363 1163.29 938.319 1184.96 C 929.83 1207.38 915.01 1229.92 903.657 1250.91 C 895.044 1266.83 883.226 1295.32 870.773 1306.62 C 840.953 1333.7 795.917 1350.31 765.247 1375.51 C 743.659 1393.24 718.108 1435.85 704.937 1461.01 L 523.815 1460.35 C 493.506 1460.35 465.525 1459.56 435.141 1460.91 C 452.442 1447.23 486.485 1419.28 504.15 1408.25 L 497.383 1399.23 C 493.962 1395.11 490.269 1391.1 486.682 1387.12 C 471.788 1401.53 435.07 1427.7 416.734 1441.45 C 416.76 1439.98 416.82 1438.5 416.915 1437.03 C 420.818 1377.37 428.992 1317.85 434.864 1258.47 L 440.885 1192.73 C 441.644 1184.34 443.676 1157.07 446.268 1149.15 C 461.076 1103.9 486.25 1052.75 512.281 1012.68 C 517.214 1005.09 540.955 985.185 547.951 979.034 L 594.661 937.439 C 595.482 958.907 596.822 980.757 597.938 1002.25 C 607.333 1001.32 616.951 1000.62 626.375 999.835 C 621.183 963.853 624.062 939.27 615.65 900.535 C 566.81 880.219 519.021 864.994 470.453 844.769 C 486.045 836.335 517.536 823.051 534.909 814.999 C 537.96 821.51 541.112 828.069 542.886 835.069 C 545.123 843.895 542.585 865.087 548.526 870.419 C 557.378 878.364 621.579 874.282 635.99 874.046 C 635.071 841.114 612.305 844.573 586.46 833.92 C 584.805 820.31 583.077 806.709 581.275 793.117 C 593.869 788.918 601.825 784.433 613.352 777.712 C 614.03 787.773 614.345 794.513 616.353 804.386 C 634.371 808.435 669.135 806.95 688.883 806.775 C 689.373 845.761 688.964 885.757 688.978 924.821 C 698.152 924.339 706.887 924.54 716.053 924.676 L 715.963 730.147 z"/>
<path transform="translate(0,0)" fill="rgb(130,97,53)" d="M 715.963 730.147 C 738.413 715.887 752.74 705.838 773.277 688.83 C 786.951 718.843 795.23 762.314 805.78 794.226 C 819.202 834.823 832.205 876.824 841.462 918.537 C 843.314 926.881 843.566 941.623 844.291 950.627 C 845.888 971.14 847.636 991.641 849.533 1012.13 C 844.025 1020.76 835.082 1032.36 828.909 1040.99 C 820.197 1053.15 807.835 1073.06 797.992 1083.86 C 802.099 1086.53 806.612 1089.87 810.674 1092.74 C 805.587 1098.3 786.824 1118.19 784.471 1124.09 L 784.869 1125.61 C 777.465 1129.85 771.164 1135.21 764.849 1140.92 C 754.829 1133.42 738.663 1122.09 730.883 1112.9 C 743.051 1113.78 761.208 1115.84 764.169 1099.16 C 764.819 1095.5 762.645 1091.39 760.193 1088.83 C 747.035 1075.84 719.589 1072.2 701.928 1068.26 C 699.206 1055.98 697.132 1043.56 695.716 1031.06 C 723.173 1031.28 728.905 1022.79 735.837 997.113 L 737.313 997.104 C 764.018 996.718 741.313 968.815 732.23 960.717 C 709.302 940.276 660.071 937.942 664.267 979.859 C 664.901 985.43 668.97 996.271 667.021 1000.57 C 658.659 1006.84 645.261 1005.56 637.89 1010.9 C 616.39 1026.47 581.979 1064.92 569.892 1087.82 C 565.957 1095.16 563.311 1103.11 562.07 1111.34 C 557.878 1140.48 575.407 1150.81 596.323 1165.31 C 585.985 1167.88 555.401 1174.36 554.469 1186.96 C 559.948 1193.72 575.92 1186.98 582.589 1184.25 C 599.626 1202.82 614.796 1219.31 632.822 1236.93 C 629.498 1242.27 625.777 1248.72 621.749 1253.43 C 542.34 1218.53 467.848 1303.85 518.027 1381.43 C 511.28 1388.1 504.023 1392.65 497.383 1399.23 C 493.962 1395.11 490.269 1391.1 486.682 1387.12 C 471.788 1401.53 435.07 1427.7 416.734 1441.45 C 416.76 1439.98 416.82 1438.5 416.915 1437.03 C 420.818 1377.37 428.992 1317.85 434.864 1258.47 L 440.885 1192.73 C 441.644 1184.34 443.676 1157.07 446.268 1149.15 C 461.076 1103.9 486.25 1052.75 512.281 1012.68 C 517.214 1005.09 540.955 985.185 547.951 979.034 L 594.661 937.439 C 595.482 958.907 596.822 980.757 597.938 1002.25 C 607.333 1001.32 616.951 1000.62 626.375 999.835 C 621.183 963.853 624.062 939.27 615.65 900.535 C 566.81 880.219 519.021 864.994 470.453 844.769 C 486.045 836.335 517.536 823.051 534.909 814.999 C 537.96 821.51 541.112 828.069 542.886 835.069 C 545.123 843.895 542.585 865.087 548.526 870.419 C 557.378 878.364 621.579 874.282 635.99 874.046 C 635.071 841.114 612.305 844.573 586.46 833.92 C 584.805 820.31 583.077 806.709 581.275 793.117 C 593.869 788.918 601.825 784.433 613.352 777.712 C 614.03 787.773 614.345 794.513 616.353 804.386 C 634.371 808.435 669.135 806.95 688.883 806.775 C 689.373 845.761 688.964 885.757 688.978 924.821 C 698.152 924.339 706.887 924.54 716.053 924.676 L 715.963 730.147 z"/>
<path transform="translate(0,0)" fill="rgb(174,137,96)" d="M 869.889 933.907 C 885.958 948.619 921.861 971.199 940.958 983.352 L 940.975 1100.42 C 940.983 1123.43 943.363 1163.29 938.319 1184.96 C 929.83 1207.38 915.01 1229.92 903.657 1250.91 C 895.044 1266.83 883.226 1295.32 870.773 1306.62 C 840.953 1333.7 795.917 1350.31 765.247 1375.51 C 743.659 1393.24 718.108 1435.85 704.937 1461.01 L 523.815 1460.35 C 493.506 1460.35 465.525 1459.56 435.141 1460.91 C 452.442 1447.23 486.485 1419.28 504.15 1408.25 L 497.383 1399.23 C 504.023 1392.65 511.28 1388.1 518.027 1381.43 C 520.91 1384.7 523.978 1387.81 527.216 1390.73 C 574.445 1432.71 644.027 1415.87 665.193 1355.43 C 670.425 1340.49 669.482 1324.27 668.052 1308.7 C 684.381 1304.3 700.844 1296.94 717.02 1292.49 C 751.942 1282.89 739.194 1265.51 710.311 1260.39 C 715.192 1232.09 721.346 1204.03 728.754 1176.29 C 739.103 1166.71 744.218 1159.2 753.099 1150.61 C 753.483 1155.66 750.44 1162.87 748.415 1167.54 C 728.639 1213.18 746.485 1257.27 792.004 1276.94 C 812.594 1285.78 835.884 1285.93 856.586 1277.35 C 899.683 1259.72 919.895 1210.91 901.917 1167.77 C 893.471 1146.95 877.027 1130.39 856.268 1121.79 C 829.941 1110.97 810.285 1115.14 784.869 1125.61 L 784.471 1124.09 C 786.824 1118.19 805.587 1098.3 810.674 1092.74 C 813.659 1095.01 815.517 1096.99 819.166 1097.41 C 828.256 1091.43 869.499 1028.78 877.233 1017.41 C 874.54 990.389 871.792 961.049 869.889 933.907 z"/>
<path transform="translate(0,0)" fill="rgb(130,97,53)" d="M 737.541 1138.3 L 753.099 1150.61 C 744.218 1159.2 739.103 1166.71 728.754 1176.29 C 731.11 1164.45 733.664 1149.51 737.541 1138.3 z"/>
<path transform="translate(0,0)" fill="rgb(174,137,96)" d="M 818.246 1139.3 C 857.301 1134.16 887.433 1167.96 884.275 1205.74 C 883.001 1221.64 875.325 1236.35 863.005 1246.48 C 850.822 1256.7 835.064 1261.62 819.233 1260.16 C 797.735 1258.13 785.403 1247.57 772.514 1231.74 C 758.056 1209.86 763.913 1189.33 772.6 1167.24 C 782.989 1175.73 816.005 1206.42 825.845 1206.49 C 829.437 1204.8 828.313 1206.1 829.68 1202.78 C 827.346 1189.22 793.161 1164.82 781.329 1156.14 C 792.669 1145.96 803.654 1142.17 818.246 1139.3 z"/>
<path transform="translate(0,0)" fill="rgb(174,137,96)" d="M 579.072 1333.85 C 591.069 1340.1 632.679 1322.09 645.675 1316.9 C 647.276 1337.07 645.469 1352.77 631.872 1368.95 C 621.694 1381.07 607.078 1388.61 591.297 1389.87 C 570.519 1391.49 550.191 1382.34 536.758 1366.55 C 546.15 1361.14 573.189 1342.35 579.072 1333.85 z"/>
<path transform="translate(0,0)" fill="rgb(130,97,53)" d="M 536.758 1366.55 C 535.705 1364.94 534.823 1363.33 533.876 1361.76 C 507.421 1318.04 544.559 1261.22 595.253 1269.58 C 600.304 1270.42 604.736 1271.91 609.526 1273.44 C 602.535 1283.88 578.151 1322.61 579.072 1333.85 C 573.189 1342.35 546.15 1361.14 536.758 1366.55 z"/>
<path transform="translate(0,0)" fill="rgb(27,61,91)" d="M 660.967 1017.01 C 667.591 1016.07 670.6 1018.78 676.538 1022.06 C 680.797 1033.2 683.033 1041.79 685.768 1053.2 C 679.512 1056.1 676.484 1057.02 669.929 1058.98 C 667.071 1052.51 664.954 1044.6 657.862 1042.05 C 646.739 1045.42 655.164 1066.49 658.004 1073.33 C 650.014 1082.6 637.942 1094.36 629.187 1103.38 C 622.999 1108.06 590.755 1093.88 583.257 1091.04 C 602.563 1061.4 627.968 1031.1 660.967 1017.01 z"/>
<path transform="translate(0,0)" fill="rgb(74,74,73)" d="M 576.425 1104.26 C 623.275 1118.71 624.011 1118.25 659.464 1153.51 C 656.331 1157.57 653.26 1161.68 650.25 1165.83 C 646.629 1169.44 644.141 1172.51 640.932 1176.42 C 624.614 1165.25 603.308 1155.67 588.561 1142.7 C 576.363 1131.97 576.506 1118.99 576.425 1104.26 z"/>
<path transform="translate(0,0)" fill="rgb(130,97,53)" d="M 662.237 1089.97 C 664.318 1093.5 667.354 1100.59 669.167 1104.59 C 686.923 1110.03 692.929 1110.01 711.321 1111.42 C 713.23 1114.55 717.13 1119.23 719.505 1122.26 C 709.517 1131.46 700.052 1144.52 691.657 1155.39 C 689.399 1158.62 690.793 1157.86 687.784 1159.14 C 674.572 1152.9 651.877 1126.85 640.191 1116.55 L 639.214 1115.7 C 646.113 1105.63 653.703 1098.55 662.237 1089.97 z"/>
<path transform="translate(0,0)" fill="rgb(174,137,96)" d="M 668.471 1163.09 C 672.299 1165.39 675.814 1169.1 679.107 1172.22 C 681.866 1193.04 681.965 1214.94 684.859 1235.86 C 685.745 1242.27 686.655 1249.56 686.681 1255.99 C 683.913 1258.07 678.629 1257.77 675.826 1255.82 C 670.485 1235.21 668.565 1210.24 660.026 1190.83 C 659.243 1189.05 654.714 1184.44 653.273 1182.97 C 657.965 1175.39 663.57 1171.1 668.471 1163.09 z"/>
<path transform="translate(0,0)" fill="rgb(130,97,53)" d="M 607.688 1173.99 C 622.316 1176.35 646.151 1194.47 652.256 1208.59 C 648.853 1214.01 645.123 1219.24 641.47 1224.49 C 631.313 1216.97 607.031 1189.57 597.543 1179.24 L 607.688 1173.99 z"/>
<path transform="translate(0,0)" fill="rgb(174,137,96)" d="M 684.831 1068.08 L 686.708 1069.2 C 688.106 1072.4 691.135 1078.61 694.483 1080.45 C 705.882 1086.72 740.918 1086.81 747.446 1097.84 L 746.87 1098.96 C 743.578 1100.2 741.001 1099.54 737.452 1099.15 C 720.634 1099.35 697.028 1096.49 679.731 1094.82 C 677.655 1087.27 674.75 1079.77 672.043 1072.41 C 676.133 1070.88 680.659 1069.47 684.831 1068.08 z"/>
<path transform="translate(0,0)" fill="rgb(27,61,91)" d="M 688.962 960.117 C 710.28 959.737 720.974 964.065 731.242 983.684 L 717.243 982.175 C 707.472 981.688 691.629 985.02 684.707 983.683 C 665.005 979.876 681.259 964.687 688.962 960.117 z"/>
<path transform="translate(0,0)" fill="rgb(130,97,53)" d="M 722.062 1139.47 C 717.578 1160.97 712.764 1182.41 707.623 1203.77 C 704.655 1201.87 700.962 1203.01 696.699 1203.37 C 695.011 1193.85 694.067 1184.21 693.875 1174.54 C 704.53 1163.97 712.523 1150.77 722.062 1139.47 z"/>
<path transform="translate(0,0)" fill="rgb(174,137,96)" d="M 620.544 1280.84 C 631.139 1285.94 635.269 1293.55 641.804 1303.03 C 635.059 1306.23 624.4 1309.7 617.118 1312.31 L 599.527 1317.71 C 605.449 1305.28 614.691 1293.4 620.544 1280.84 z"/>
<path transform="translate(0,0)" fill="rgb(174,137,96)" d="M 690.859 995.182 C 702.236 994.51 710.615 994.591 721.917 995.384 C 718.468 1005.51 717.528 1008.37 710.582 1016.49 C 708.731 1018.38 708.909 1018.4 706.432 1019.21 C 697.994 1018.25 684.478 1010.65 685.338 1000.73 C 686.895 997.483 687.89 997.159 690.859 995.182 z"/>
<path transform="translate(0,0)" fill="rgb(27,61,91)" d="M 685.694 1270.24 C 698.654 1269.34 711.871 1272.86 723.659 1278.03 C 718.854 1278.64 714.848 1279.56 710.141 1280.59 C 701.232 1283.57 689.759 1285.93 680.446 1288.1 C 679.811 1279.96 677.367 1273.81 685.694 1270.24 z"/>
<path transform="translate(0,0)" fill="rgb(174,137,96)" d="M 655.417 1263.05 C 659.224 1266.96 664.369 1271.86 667.415 1276.22 C 667.615 1280.69 668.343 1284.75 666.493 1288.64 C 660.117 1293.39 651.521 1278.21 648.842 1273.12 L 649.286 1271.99 C 651.443 1266.66 650.826 1266.83 655.417 1263.05 z"/>
<path transform="translate(0,0)" fill="rgb(130,97,53)" d="M 641.629 1247.34 C 646.632 1252.73 650.767 1257.36 655.417 1263.05 C 650.826 1266.83 651.443 1266.66 649.286 1271.99 L 648.842 1273.12 C 644.135 1267.92 638.896 1263.23 633.21 1259.12 C 635.827 1255.12 638.796 1251.21 641.629 1247.34 z"/>
<path transform="translate(0,0)" fill="rgb(174,137,96)" d="M 696.699 1203.37 C 700.962 1203.01 704.655 1201.87 707.623 1203.77 C 705.756 1211.78 701.7 1226.52 700.513 1233.87 C 699.271 1234.15 700.097 1234.08 698.074 1233.38 C 698.085 1224.31 697.13 1212.66 696.699 1203.37 z"/>
<path transform="translate(0,0)" fill="rgb(174,137,96)" d="M 654.234 1229.67 C 657.116 1232.38 659.141 1239.04 656.916 1242.54 C 654.217 1239.94 653.234 1239.2 651.252 1235.91 C 651.435 1232.16 651.452 1233.26 654.234 1229.67 z"/>
<path transform="translate(0,0)" fill="rgb(127,108,95)" d="M 698.074 1233.38 C 700.097 1234.08 699.271 1234.15 700.513 1233.87 C 700.129 1237.2 700.171 1237.37 698.966 1240.68 C 697.624 1238.35 698.091 1236.41 698.074 1233.38 z"/>
<path transform="translate(0,0)" fill="rgb(105,138,68)" d="M 349.315 682.021 L 379.488 681.992 C 383.296 743.705 406.647 745.499 461.31 744.093 C 479.033 743.637 497.52 744.197 515.492 743.075 C 516.793 762.707 518.972 771.666 525.78 789.946 C 503.862 799.178 482.132 808.85 460.603 818.957 C 449.537 824.095 439.091 828.843 428.408 834.789 C 417.921 840.626 417.868 854.2 429.039 858.477 C 478.901 877.567 528.985 896.925 579.325 914.758 C 565.02 929.857 549.548 942.793 533.877 956.405 C 523.614 964.742 499.233 985.021 491.471 994.9 C 473.519 1017.75 458.669 1054.71 445.693 1081.17 C 441.036 1090.66 428.158 1116.87 421.432 1122.63 C 402.922 1138.48 370.295 1153.61 348.286 1166.05 L 232.085 1232.07 L 232.038 682.014 L 307.377 682.081 C 305.684 694.173 304.258 704.781 300.59 716.45 C 284.5 719.73 261.314 723.611 253.175 740.643 C 252.047 743.004 251.238 745.857 252.199 748.382 C 257.755 753.831 322.591 752.628 329.272 744.367 C 337.876 733.727 345.788 696.052 349.315 682.021 z"/>
<path transform="translate(0,0)" fill="rgb(130,97,53)" d="M 1810.55 916.981 C 1813.69 917.251 1812.44 916.63 1814.57 918.617 C 1816.62 928.947 1815.95 960.207 1815.95 972.033 L 1815.95 1074.77 L 1816.44 1273.78 C 1816.46 1309.24 1817.09 1351.66 1815.47 1386.87 C 1791.8 1388.37 1769.37 1402.18 1741.24 1404.04 C 1700.82 1406.71 1676.6 1387.07 1639.61 1386.17 C 1624.34 1385.84 1609.1 1387.63 1594.32 1391.48 C 1539.63 1405.53 1543.44 1409.39 1486.54 1396.81 C 1500.14 1390.17 1512.15 1384.49 1525.02 1376.36 C 1532.09 1370.32 1542.21 1363.21 1543.81 1353.92 C 1543.07 1351.19 1542.91 1350.4 1540.41 1348.75 C 1533.04 1343.88 1477.14 1355.4 1465.8 1357.82 C 1471.79 1340.54 1489.77 1286.1 1498.04 1272.47 C 1506.95 1257.81 1578.58 1227.49 1589.2 1207.94 C 1601.25 1185.76 1612.61 1146.72 1620.98 1122.29 L 1671.82 974.707 C 1716.97 957.959 1766.31 936.346 1810.55 916.981 z"/>
<path transform="translate(0,0)" fill="rgb(130,97,53)" d="M 1379.8 979.011 L 1641.92 978.887 C 1626.73 1027.66 1608.2 1077.79 1591.79 1126.23 C 1588.73 1135.29 1570.78 1186.94 1566.64 1191.99 C 1546.84 1216.22 1496.03 1229.07 1476.04 1256.84 C 1473.19 1260.8 1470.88 1266.63 1468.95 1271.21 C 1457.8 1299.91 1447.31 1334.23 1435.17 1361.62 C 1425.77 1364.3 1403.27 1367.26 1393.1 1368.82 C 1382.53 1326.6 1371.86 1284.82 1357.38 1243.72 C 1352.41 1229.6 1346.3 1210.88 1339.89 1197.51 C 1345.61 1194.36 1350.93 1192 1350.79 1184.65 C 1346.65 1178.65 1341.29 1181.68 1335.67 1183.77 C 1329.84 1170.81 1325.09 1159.01 1317.97 1146.67 C 1339.16 1089.55 1356.98 1036.17 1379.8 979.011 z"/>
<path transform="translate(0,0)" fill="rgb(105,138,68)" d="M 1808.07 685.267 C 1810.94 684.843 1811.16 684.551 1813.87 685.35 C 1817.33 690.21 1815.99 864.575 1815.97 886.06 C 1765.85 904.991 1712.06 933.617 1661.14 948.987 C 1638.28 955.886 1583.38 951.514 1557.01 951.439 L 1375.34 951.584 C 1357.37 933.833 1339.3 913.515 1322.15 894.862 L 1264.25 832.625 C 1257.44 825.802 1250.47 817.961 1243.89 810.835 C 1267.73 805.012 1298.5 799.5 1321.23 792.48 C 1320.39 803.911 1319.67 815.349 1319.06 826.794 C 1310.31 827.269 1302.26 826.005 1293.79 827.908 C 1290.79 830.208 1291.52 828.791 1290.83 831.867 C 1294 836.028 1303.31 835.98 1308.18 836.011 C 1328.97 836.148 1349.78 836.066 1370.57 836.023 L 1502.85 835.951 L 1689.44 835.991 C 1725.69 836.027 1762.26 836.364 1798.51 835.451 C 1803.52 835.325 1809.36 835.065 1813.22 831.804 C 1813.43 828.881 1813.74 830.303 1811.44 827.633 C 1806.31 825.864 1793.02 826.051 1787.17 825.919 C 1784.27 808.558 1783.08 779.541 1781.76 761.306 C 1780.13 738.757 1777.62 713.739 1776.74 691.391 C 1786.79 690.001 1798.04 687.373 1808.07 685.267 z"/>
<path transform="translate(0,0)" fill="rgb(130,97,53)" d="M 414.536 1159.94 L 415.502 1160.86 C 416.412 1167.88 414.598 1185.44 413.94 1193.15 L 409.115 1246.45 L 387.551 1461.05 C 337.258 1459.97 283.737 1461.02 233.068 1460.88 C 229.592 1392.97 231.878 1329.62 232.008 1261.95 C 253.39 1252.19 272.601 1239.8 293.066 1228.5 C 333.582 1206.12 373.783 1181.73 414.536 1159.94 z"/>
<path transform="translate(0,0)" fill="rgb(130,97,53)" d="M 970.768 1123.99 C 974.285 1134.96 977.391 1151.28 979.912 1162.99 L 993.859 1228.53 L 1041.67 1461 C 941.582 1460.98 837.435 1462.45 737.643 1460.92 C 741.726 1450.95 748.293 1441.54 754.062 1432.47 C 760.166 1422.86 766.118 1412.91 773.855 1404.5 C 790.192 1386.76 833.993 1362.91 855.886 1349.46 C 866.199 1343.12 878.052 1337.7 887.255 1329.86 C 901.887 1317.39 961.065 1207 966.61 1185.62 C 970.307 1171.36 968.14 1146.83 968.061 1131.35 C 968.852 1127.59 968.709 1127.37 970.768 1123.99 z"/>
<path transform="translate(0,0)" fill="rgb(65,98,60)" d="M 442.974 565.328 C 464.988 565.78 465.463 561.197 464.326 586.977 C 464.407 590.797 464.322 596.39 464.886 600.001 L 464.918 601.437 L 469.866 602.671 C 474.856 601.865 480.765 603.64 483.597 599.502 L 484.487 598.988 C 484.608 602.055 484.729 603.622 485.153 606.651 L 485.149 616.498 C 486.964 626.273 483.773 650.106 489.139 655.89 C 496.696 658.995 512.093 648.14 519.079 644.032 C 522.36 652.539 523.584 655.56 525.218 664.596 C 538.53 658.778 553.378 650.743 566.456 644.024 L 556.672 625.243 C 575.509 614.471 593.643 604.783 604.492 631.173 C 622.223 674.302 631.961 721.219 647.764 764.892 L 649.629 772.904 C 656.73 775.352 665.332 778.06 671.684 781.89 C 672.964 782.662 672.28 782.328 673.985 782.852 C 677.369 783.45 678.333 783.544 681.607 784.899 C 688.052 786.405 702.101 788.337 696.084 798.382 C 688.704 800.377 630.743 799.938 624.19 798.145 C 622.862 796.267 623.188 797.237 622.951 795.337 C 622.841 780.894 623.507 773.833 617.148 760.683 L 614.266 754.206 C 602.82 737.551 589.028 712.128 581.835 693.264 C 579.125 686.157 577.847 675.501 575.707 668.122 C 563.273 672.285 549.8 682.049 538.65 689.458 C 525.826 685.175 478.95 674.277 467.005 676.808 L 465.392 678.646 C 466.37 689.571 550.145 690.029 555.863 707.156 C 569.435 747.815 569.926 797.404 579.523 839.339 C 585.593 842.423 596.229 847.487 602.833 848.998 C 609.119 851.034 625.44 855.626 628.175 861.946 C 624.069 868.356 602.637 866.029 595.057 865.821 C 582.4 866.415 565.898 865.975 552.933 866.019 C 553.576 840.8 554.108 839.94 545.913 816.265 L 543.161 808.998 C 531.648 792.467 524.732 755.737 522.422 735.802 L 471.227 736.178 C 454.47 736.408 438.226 737.508 421.595 734.719 C 387.611 729.02 388.506 701.143 386.54 673.923 C 385.756 671.209 385.447 662.87 385.231 659.604 L 384.602 656.162 C 384.199 652.951 384.14 649.317 383.997 646.041 L 383.827 644.958 C 382.292 640.043 380.794 623.424 380.16 617.561 C 386.449 619.426 388.139 616.713 393.138 613.16 L 404.913 612.929 L 405.892 613.409 C 406.163 608.922 405.968 603.165 405.944 598.576 C 405.947 589.333 404.177 574.082 408.367 566.889 C 412.063 564.512 410.959 565.257 416.025 565.141 L 419.391 564.97 L 426.973 565.045 L 432.369 565.369 L 438.96 565.256 L 442.974 565.328 z"/>
<path transform="translate(0,0)" fill="rgb(0,0,0)" d="M 442.974 565.328 C 464.988 565.78 465.463 561.197 464.326 586.977 C 464.407 590.797 464.322 596.39 464.886 600.001 L 464.918 601.437 C 464.903 604.083 464.788 607.584 464.919 610.148 L 465.008 612.81 C 464.111 618.051 464.924 618.396 462.004 621.81 C 458.475 622.594 457.31 622.598 453.805 622.727 L 450.169 623.131 C 446.856 623.081 444.023 622.712 440.983 623.905 L 440.469 623.881 C 435.373 622.474 422.026 623.61 416.532 623.978 C 412.666 623.509 411.201 623.64 407.913 621.491 C 405.625 618.315 405.939 617.306 405.892 613.409 C 406.163 608.922 405.968 603.165 405.944 598.576 C 405.947 589.333 404.177 574.082 408.367 566.889 C 412.063 564.512 410.959 565.257 416.025 565.141 L 419.391 564.97 L 426.973 565.045 L 432.369 565.369 L 438.96 565.256 L 442.974 565.328 z"/>
<path transform="translate(0,0)" fill="rgb(74,74,73)" d="M 413.239 572.117 L 457.409 572.017 C 458.145 584.718 457.832 603.208 457.446 616.01 L 414.046 615.814 C 413.171 601.884 413.351 586.214 413.239 572.117 z"/>
<path transform="translate(0,0)" fill="rgb(65,98,60)" d="M 393.138 613.16 L 404.913 612.929 L 405.892 613.409 C 405.939 617.306 405.625 618.315 407.913 621.491 C 411.201 623.64 412.666 623.509 416.532 623.978 C 422.026 623.61 435.373 622.474 440.469 623.881 C 437.026 637.802 441.119 663.811 438.265 671.124 C 430.63 669.683 394.997 668.792 387.673 670.586 L 386.985 672.089 L 387.703 673.583 L 386.54 673.923 C 385.756 671.209 385.447 662.87 385.231 659.604 L 384.602 656.162 C 384.199 652.951 384.14 649.317 383.997 646.041 L 383.827 644.958 C 382.292 640.043 380.794 623.424 380.16 617.561 C 386.449 619.426 388.139 616.713 393.138 613.16 z"/>
<path transform="translate(0,0)" fill="rgb(65,98,60)" d="M 393.138 613.16 L 404.913 612.929 L 405.892 613.409 C 405.939 617.306 405.625 618.315 407.913 621.491 C 411.201 623.64 412.666 623.509 416.532 623.978 L 417.252 624.95 C 415.423 631.21 414.907 636.153 415.531 642.655 C 407.991 642.642 389.676 641.774 383.827 644.958 C 382.292 640.043 380.794 623.424 380.16 617.561 C 386.449 619.426 388.139 616.713 393.138 613.16 z"/>
<path transform="translate(0,0)" fill="rgb(157,180,133)" d="M 384.602 656.162 C 395.559 655.959 419.601 658.976 424.203 653.049 C 429.869 645.752 425.377 629.318 427.946 624.065 L 429.55 623.993 C 433.221 629.146 432.123 653.257 424.383 656.989 C 413.695 662.142 397.155 659.281 385.231 659.604 L 384.602 656.162 z"/>
<path transform="translate(0,0)" fill="rgb(157,180,133)" d="M 417.252 624.95 C 420.166 629.23 419.081 639.355 418.886 644.968 C 407.005 645.918 395.897 645.93 383.997 646.041 L 383.827 644.958 C 389.676 641.774 407.991 642.642 415.531 642.655 C 414.907 636.153 415.423 631.21 417.252 624.95 z"/>
<path transform="translate(0,0)" fill="rgb(0,0,0)" d="M 449.092 697.121 C 463.257 697.877 485.488 696.165 499.444 699.274 C 501.941 699.83 502.484 702.595 503.235 704.683 L 502.996 708.05 L 503.041 723.707 C 484.034 725.289 466.956 725.503 447.936 722.284 C 448.648 713.35 448.997 706.08 449.092 697.121 z"/>
<path transform="translate(0,0)" fill="rgb(74,74,73)" d="M 455.112 703.042 C 469.336 703.703 482.126 703.811 496.38 703.747 C 496.256 708.813 496.009 713.876 495.639 718.93 L 454.366 718.456 L 455.112 703.042 z"/>
<path transform="translate(0,0)" fill="rgb(0,0,0)" d="M 604.343 672.809 C 607.356 672.211 609.248 671.41 611.92 672.736 C 617.063 679.938 630.378 712.915 626.951 721.093 C 620.994 722.133 619.453 722.849 613.99 725.129 C 611.621 726.551 609.17 727.921 606.942 729.533 C 602.43 721.629 588.257 686.789 590.408 678.583 C 593.845 675 597.68 674.829 602.857 673.223 L 604.343 672.809 z"/>
<path transform="translate(0,0)" fill="rgb(74,74,73)" d="M 606.493 677.877 L 607.44 678.16 C 611.642 681.956 619.447 707.911 622.188 715.779 L 611.332 719.957 L 610.185 719.8 C 606.406 716.867 597.399 688.713 595.234 682.57 L 606.493 677.877 z"/>
<path transform="translate(0,0)" fill="rgb(72,97,63)" d="M 673.985 782.852 C 677.369 783.45 678.333 783.544 681.607 784.899 C 688.052 786.405 702.101 788.337 696.084 798.382 C 688.704 800.377 630.743 799.938 624.19 798.145 C 622.862 796.267 623.188 797.237 622.951 795.337 C 627.039 794.826 635.403 793.161 639.594 792.319 C 650.41 791.957 661.233 791.888 672.053 792.113 L 671.02 788.734 C 673.087 786.864 672.985 785.771 673.985 782.852 z"/>
<path transform="translate(0,0)" fill="rgb(157,180,133)" d="M 673.985 782.852 C 677.369 783.45 678.333 783.544 681.607 784.899 C 681.644 788.895 682.084 790.547 679.807 793.796 C 676.668 795.418 674.65 794.75 672.053 792.113 L 671.02 788.734 C 673.087 786.864 672.985 785.771 673.985 782.852 z"/>
<path transform="translate(0,0)" fill="rgb(157,180,133)" d="M 503.235 704.683 C 516.513 705.176 540.782 702.039 550.389 713.015 C 556.209 719.664 566.456 801.5 570.312 817.331 C 562.122 833.983 563.357 837.834 564.165 856.077 C 569.695 855.835 588.79 855.618 593.173 854.639 C 594.679 852.921 594.93 852.644 596.077 850.683 C 600.606 853.001 598.314 854.726 599.316 859.162 L 598.869 860.28 C 580.454 857.552 582.004 857.657 562.296 858.149 C 561.193 839.024 559.275 833.258 568.105 815.409 C 563.217 797.507 559.386 772.172 556.795 753.8 C 550.206 707.087 549.689 707.126 502.996 708.05 L 503.235 704.683 z"/>
<path transform="translate(0,0)" fill="rgb(72,97,63)" d="M 599.316 859.162 C 602.702 857.587 601.479 858.759 603.286 855.717 C 602.956 853.401 602.757 851.35 602.833 848.998 C 609.119 851.034 625.44 855.626 628.175 861.946 C 624.069 868.356 602.637 866.029 595.057 865.821 C 597.407 864.501 597.907 864.447 599.67 862.476 L 598.869 860.28 L 599.316 859.162 z"/>
<path transform="translate(0,0)" fill="rgb(157,180,133)" d="M 626.574 723.935 C 629.503 732.773 638.258 757.855 639.283 765.799 C 631.067 772.258 631.691 780.294 630.979 789.974 C 644.33 789.713 657.678 789.3 671.02 788.734 L 672.053 792.113 C 661.233 791.888 650.41 791.957 639.594 792.319 C 634.595 792.501 631.896 793.557 628.445 789.804 C 625.801 780.855 634.386 771.247 635.099 764.36 C 636.035 755.319 622.543 732.005 626.574 723.935 z"/>
<path transform="translate(0,0)" fill="rgb(157,180,133)" d="M 589.311 635.161 L 588.169 634.584 C 581.563 631.172 579.71 628.965 582.205 621.586 C 584.89 619.032 583.315 619.869 587.252 619.309 C 588.827 620.054 590 620.19 590.436 622.48 C 592.049 630.943 592.505 636.767 595.185 645.1 C 597.027 650.827 604.773 668.335 604.343 672.809 L 602.857 673.223 C 599.085 665.062 591.85 644.035 589.311 635.161 z"/>
<path transform="translate(0,0)" fill="rgb(157,180,133)" d="M 614.916 730.685 C 619.497 738.367 623.538 746.358 627.01 754.601 L 617.148 760.683 L 614.266 754.206 C 615.429 747.604 615.844 742.375 614.203 735.795 L 614.916 730.685 z"/>
<path transform="translate(0,0)" fill="rgb(157,180,133)" d="M 387.703 673.583 L 386.985 672.089 L 387.673 670.586 C 394.997 668.792 430.63 669.683 438.265 671.124 L 439.499 673.381 C 422.415 673.302 404.722 672.993 387.703 673.583 z"/>
<path transform="translate(0,0)" fill="rgb(157,180,133)" d="M 450.169 623.131 L 453.805 622.727 C 454.728 634.369 453.479 651.852 454.13 665.252 C 457.043 667.3 459.25 668.364 460.771 671.533 L 459.623 672.247 C 455.661 671.035 454.066 668.6 451.146 665.45 C 450.716 651.257 450.192 637.342 450.169 623.131 z"/>
<path transform="translate(0,0)" fill="rgb(157,180,133)" d="M 543.161 808.998 C 547.882 801.577 550.584 801.6 549.248 795.051 L 550.717 794.18 C 553.388 796.474 558.244 809.531 554.753 812.498 C 552.845 814.12 548.497 815.408 545.913 816.265 L 543.161 808.998 z"/>
<path transform="translate(0,0)" fill="rgb(157,180,133)" d="M 440.469 623.881 L 440.983 623.905 C 443.046 629.968 444.743 671.094 439.499 673.381 L 438.265 671.124 C 441.119 663.811 437.026 637.802 440.469 623.881 z"/>
<path transform="translate(0,0)" fill="rgb(65,98,60)" d="M 464.918 601.437 L 469.866 602.671 L 471.868 602.929 C 475.528 603.383 479.053 602.324 481.879 604.432 C 482.817 607.732 481.822 609.466 480.736 612.764 C 474.656 611.205 471.299 610.077 464.919 610.148 C 464.788 607.584 464.903 604.083 464.918 601.437 z"/>
<path transform="translate(0,0)" fill="rgb(72,97,63)" d="M 483.597 599.502 L 484.487 598.988 C 484.608 602.055 484.729 603.622 485.153 606.651 L 485.149 616.498 C 485.131 619.995 485.585 622.89 483.784 625.739 C 481.042 623.624 481.332 622.633 479.731 618.926 L 480.736 612.764 C 481.822 609.466 482.817 607.732 481.879 604.432 C 479.053 602.324 475.528 603.383 471.868 602.929 L 469.866 602.671 C 474.856 601.865 480.765 603.64 483.597 599.502 z"/>
<path transform="translate(0,0)" fill="rgb(157,180,133)" d="M 464.919 610.148 C 471.299 610.077 474.656 611.205 480.736 612.764 L 479.731 618.926 C 474.131 614.14 472.365 613.858 465.008 612.81 L 464.919 610.148 z"/>
<path transform="translate(0,0)" fill="rgb(72,97,63)" d="M 606.942 729.533 C 609.17 727.921 611.621 726.551 613.99 725.129 C 614.836 727.765 615.158 727.993 614.916 730.685 L 614.203 735.795 C 610.068 733.934 609.427 733.162 606.942 729.533 z"/>
<path transform="translate(0,0)" fill="rgb(0,0,0)" d="M 416.196 687.229 C 422.774 686.325 429.327 689.041 433.337 694.334 C 437.346 699.626 438.187 706.671 435.536 712.758 C 432.885 718.845 427.154 723.028 420.549 723.697 C 410.522 724.714 401.55 717.461 400.442 707.444 C 399.347 697.55 406.334 688.584 416.196 687.229 z"/>
<path transform="translate(0,0)" fill="rgb(176,167,157)" d="M 413.671 694.55 C 417.672 692.823 422.296 693.408 425.741 696.077 C 429.186 698.746 430.907 703.076 430.235 707.382 C 429.562 711.688 426.601 715.287 422.506 716.778 C 416.425 718.992 409.685 715.969 407.295 709.955 C 404.904 703.941 407.729 697.116 413.671 694.55 z"/>
<path transform="translate(0,0)" fill="rgb(0,0,0)" d="M 546.045 755.424 C 549.497 760.688 554.876 781.929 552.76 788.244 C 548.779 789.601 544.644 790.801 540.613 792.025 C 534.289 786.145 533.178 769.559 531.335 760.524 L 546.045 755.424 z"/>
<path transform="translate(0,0)" fill="rgb(174,137,96)" d="M 540.916 761.428 C 545.721 764.894 549.895 781.638 546.018 786.673 C 540.135 780.713 535.514 768.855 540.916 761.428 z"/>
<path transform="translate(0,0)" fill="rgb(157,180,133)" d="M 572.852 652.056 C 582.841 649.907 594.408 661.899 592.864 672.89 L 591.653 673.319 C 588.999 669.986 588.935 666.545 588.201 662.225 C 583.181 658.645 580.271 657.321 574.826 654.679 C 565.587 657.062 560.614 660.21 552.584 665.1 C 544.35 669.978 535.329 673.768 526.328 679.024 C 532.169 670.654 562.21 655.274 572.852 652.056 z"/>
<path transform="translate(0,0)" fill="rgb(157,180,133)" d="M 512.054 715.316 C 515.662 715.139 521.76 714.97 525.126 715.283 C 531.168 715.846 541.068 739.974 539.835 744.303 C 536.776 746.771 535.25 746.7 531.401 747.386 C 527.008 735.323 532.903 732.216 530.962 723.619 C 529.71 718.077 509.891 720.083 504.566 717.301 C 507.265 715.247 508.084 715.815 512.054 715.316 z"/>
<path transform="translate(0,0)" fill="rgb(157,180,133)" d="M 467.879 637.692 C 473.72 637.895 482.409 638.303 485.764 644.084 L 484.698 646.53 L 482.693 646.559 C 477.585 648.36 474.427 650.481 469.564 647.834 C 467.477 644.275 467.925 642.003 467.879 637.692 z"/>
<path transform="translate(0,0)" fill="rgb(157,180,133)" d="M 507.062 669.509 C 504.85 674.009 501.179 676.347 496.279 674.739 C 493.99 672.083 494.227 672.2 493.82 668.662 C 496.59 661.502 500.264 662.667 506.407 664.793 L 504.227 665.908 C 504.83 668.588 504.311 667.291 507.062 669.509 z"/>
<path transform="translate(0,0)" fill="rgb(157,180,133)" d="M 506.407 664.793 C 509.762 662.474 512.678 659.797 516.632 659.637 L 517.857 660.732 C 516.684 664.676 513.594 666.052 510.093 667.929 C 509.088 668.465 508.078 668.992 507.062 669.509 C 504.311 667.291 504.83 668.588 504.227 665.908 L 506.407 664.793 z"/>
<path transform="translate(0,0)" fill="rgb(88,157,187)" d="M 1060.06 1412.86 C 1083.56 1422.22 1112.85 1429.6 1138.02 1430.95 C 1174.41 1432.9 1198.92 1413.13 1235.14 1412.93 C 1273.24 1412.71 1291.88 1429.04 1330.44 1430.59 C 1372.46 1432.28 1394.7 1414.78 1433.3 1412.7 C 1462.41 1411.13 1491 1428.39 1522.75 1430.2 C 1565.84 1432.66 1595.64 1413.66 1636.95 1412.57 C 1652.82 1412.15 1671.39 1417.71 1685.99 1423.85 C 1721.51 1438.77 1759.13 1428.32 1795.21 1418.17 L 1814.8 1412.3 L 1815.43 1460.96 L 1068.42 1461.08 C 1065.56 1447.44 1061.54 1426.32 1060.06 1412.86 z"/>
<path transform="translate(0,0)" fill="rgb(130,97,53)" d="M 1112.43 1067.59 C 1119.19 1073.66 1138.46 1177.32 1141.74 1194.09 C 1131.82 1203.68 1130.11 1207.43 1127.37 1220.72 C 1132.2 1234.12 1134.11 1235.96 1143.81 1246.22 C 1125.31 1266.84 1131.74 1282.13 1138.3 1305.58 C 1151.32 1352.12 1159.49 1361.66 1207.71 1364.44 C 1207.94 1372.91 1208.37 1378.98 1209.35 1387.39 C 1190.94 1393.09 1167.91 1401.43 1149.25 1403.56 C 1112.75 1409.25 1084.95 1387.02 1054.13 1386.88 C 1044.47 1349.5 1037.03 1304.57 1028.46 1266.03 C 1055.18 1200.96 1088 1132.72 1112.43 1067.59 z"/>
<path transform="translate(0,0)" fill="rgb(130,97,53)" d="M 1220.47 826.592 C 1229.47 833.766 1250.38 857.948 1259.46 867.417 C 1291.72 900.576 1323.61 934.104 1355.11 967.995 C 1348.63 982.225 1342.13 1001.31 1336.73 1016.11 L 1306.91 1097.78 L 1302.43 1110.67 C 1295.77 1098.11 1289.18 1085.5 1282.67 1072.86 C 1253.86 1016.94 1219.46 964.53 1185.02 911.955 C 1189.81 897.694 1196.35 884.598 1202.12 870.779 C 1208.28 856.032 1214.18 841.297 1220.47 826.592 z"/>
<path transform="translate(0,0)" fill="rgb(65,98,60)" d="M 416.656 399.355 C 429.934 397.689 444.788 396.17 456.042 404.742 C 469.97 415.351 470.103 431.513 474.035 446.938 C 475.327 452.007 477.519 458.057 479.308 463.031 C 462.92 469.005 471.688 473.123 469.245 486.364 C 456.31 499.662 441.619 478.193 444.294 511.596 L 445.553 512.271 C 457.878 518.798 472.493 521.074 485.778 525.306 C 504.504 531.272 506.11 549.599 511.062 565.908 C 513.125 570.682 514.912 574.89 516.691 579.813 C 516.364 587.05 518.359 590.498 521.74 596.921 C 524.607 601.403 524.492 602.401 525.465 607.816 C 526.595 610.666 528.056 614.074 528.88 616.95 C 529.89 620.319 531.642 624.816 531.269 628.148 L 530.677 629.015 L 508.675 640.977 C 502.645 627.71 496.183 616.628 493.704 601.91 C 491.543 589.085 492.436 578.377 492.363 565.699 C 491.9 565.08 491.438 564.462 490.975 563.843 L 489.011 564.018 C 481.592 570.553 487.487 596.084 485.153 606.651 C 484.729 603.622 484.608 602.055 484.487 598.988 L 483.597 599.502 C 480.765 603.64 474.856 601.865 469.866 602.671 L 464.918 601.437 L 464.886 600.001 C 464.322 596.39 464.407 590.797 464.326 586.977 C 465.463 561.197 464.988 565.78 442.974 565.328 L 438.96 565.256 L 432.369 565.369 L 426.973 565.045 L 419.391 564.97 L 416.025 565.141 C 415.448 558.836 415.208 552.106 414.881 545.751 C 410.902 540.316 387.466 518.933 387.177 518.3 L 390.415 517.492 C 392.922 516.169 396.844 514.906 399.632 513.898 L 405.417 511.854 C 411.914 486.461 407.094 480.128 396.735 458.881 L 395.388 456.787 C 394.163 454.077 393.107 450.196 392.207 447.25 L 392.096 445.643 L 392.151 444.153 C 390.699 439.15 390.652 434.174 391.686 429.094 L 391.653 426.431 C 393.286 414.151 403.427 405.482 414.128 400.594 L 416.656 399.355 z"/>
<path transform="translate(0,0)" fill="rgb(72,97,63)" d="M 416.656 399.355 C 429.934 397.689 444.788 396.17 456.042 404.742 C 469.97 415.351 470.103 431.513 474.035 446.938 C 475.327 452.007 477.519 458.057 479.308 463.031 C 462.92 469.005 471.688 473.123 469.245 486.364 C 466.232 486.515 467.698 486.696 464.905 485.246 C 457.544 486.213 456.306 484.466 452.589 478.492 C 453.818 472.559 456.068 473.772 456.23 472.485 C 456.802 467.937 456.654 459.493 457.011 454.704 C 456.923 452.526 456.965 453.297 455.841 451.166 C 452.063 448.19 445.84 447.594 440.896 446.593 L 440.231 446.644 C 440.229 449.211 440.349 453.433 440.188 455.859 L 440.118 457.27 C 440.055 460.649 440.354 461.318 438.687 464.25 C 430.347 470.527 415.267 469.833 413.59 457.029 L 413.147 456.995 C 409.92 461.425 402.12 459.368 396.735 458.881 L 395.388 456.787 C 394.163 454.077 393.107 450.196 392.207 447.25 L 392.096 445.643 L 392.151 444.153 C 390.699 439.15 390.652 434.174 391.686 429.094 L 391.653 426.431 C 393.286 414.151 403.427 405.482 414.128 400.594 L 416.656 399.355 z"/>
<path transform="translate(0,0)" fill="rgb(0,0,0)" d="M 413.366 418.511 C 419.541 418.167 434.813 416.095 439.096 420.527 C 440.331 421.805 440 424.415 440.122 426.587 L 440.062 436.251 L 440.231 446.644 C 440.229 449.211 440.349 453.433 440.188 455.859 L 440.118 457.27 C 440.055 460.649 440.354 461.318 438.687 464.25 C 430.347 470.527 415.267 469.833 413.59 457.029 L 413.772 442.734 C 414.193 436.023 413.571 425.494 413.366 418.511 z"/>
<path transform="translate(0,0)" fill="rgb(74,74,73)" d="M 418.298 424.128 L 433.627 424.211 C 433.936 436.365 433.991 448.525 433.792 460.682 L 418.735 460.734 C 418.416 448.653 418.422 436.24 418.298 424.128 z"/>
<path transform="translate(0,0)" fill="rgb(157,180,133)" d="M 441.267 427.055 C 448.259 423.665 459.883 424.389 465.132 430.799 C 465.393 437.249 458.073 436.918 453.099 437.374 C 448.613 437.801 444.956 437.843 440.866 436.071 L 440.062 436.251 L 440.122 426.587 L 441.267 427.055 z"/>
<path transform="translate(0,0)" fill="rgb(65,98,60)" d="M 440.122 426.587 L 441.267 427.055 C 444.358 428.476 445.974 427.889 449.187 427.426 C 451.753 428.744 451.901 429.945 453.208 432.615 L 453.099 437.374 C 448.613 437.801 444.956 437.843 440.866 436.071 L 440.062 436.251 L 440.122 426.587 z"/>
<path transform="translate(0,0)" fill="rgb(149,166,126)" d="M 453.208 432.615 L 453.099 437.374 C 448.613 437.801 444.956 437.843 440.866 436.071 C 441.694 434.996 441.919 435.001 443.043 434.171 C 447.476 434.236 449.563 434.75 453.208 432.615 z"/>
<path transform="translate(0,0)" fill="rgb(157,180,133)" d="M 440.896 446.593 L 441.746 444.519 C 461.72 438.387 466.657 461.118 459.34 471.576 C 457.906 468.527 458.105 459.44 457.011 454.704 C 456.923 452.526 456.965 453.297 455.841 451.166 C 452.063 448.19 445.84 447.594 440.896 446.593 z"/>
<path transform="translate(0,0)" fill="rgb(157,180,133)" d="M 440.062 410.306 C 445.287 407.105 451.444 402.182 456.438 408.867 C 455.183 418.043 446.535 415.477 440.63 413.241 L 440.062 410.306 z"/>
<path transform="translate(0,0)" fill="rgb(157,180,133)" d="M 416.656 399.355 L 416.706 400.943 C 416.849 406.3 415.566 405.177 417.755 409.594 C 420.369 411.323 435.433 410.292 440.062 410.306 L 440.63 413.241 C 432.632 412.829 418.447 416.156 413.37 410.347 C 412.153 406.718 413.203 404.372 414.128 400.594 L 416.656 399.355 z"/>
<path transform="translate(0,0)" fill="rgb(157,180,133)" d="M 452.589 478.492 C 456.101 474.726 459.865 472.242 464.679 476.428 L 464.335 478.323 C 461.759 477.972 461.593 477.856 459.081 477.114 L 457.282 478.343 L 457.08 480.02 C 459.808 482.268 460.93 482.291 464.315 483.134 L 464.905 485.246 C 457.544 486.213 456.306 484.466 452.589 478.492 z"/>
<path transform="translate(0,0)" fill="rgb(149,166,126)" d="M 391.653 426.431 C 397.5 426.236 403.641 425.755 409.382 426.576 L 410.364 427.924 L 410.371 426.754 L 411.67 427.392 C 407.462 429.635 396.757 429.127 391.686 429.094 L 391.653 426.431 z"/>
<path transform="translate(0,0)" fill="rgb(157,180,133)" d="M 392.096 445.643 C 395.381 445.394 409.82 445.275 411.791 446.698 C 405.712 448.889 400.291 448.45 393.863 448.356 L 392.207 447.25 L 392.096 445.643 z"/>
<path transform="translate(0,0)" fill="rgb(149,166,126)" d="M 395.388 456.787 C 399.856 456.341 409.498 454.888 413.147 456.995 C 409.92 461.425 402.12 459.368 396.735 458.881 L 395.388 456.787 z"/>
<path transform="translate(0,0)" fill="rgb(157,180,133)" d="M 392.157 439.028 L 393.079 436.761 C 398.803 435.106 405.53 435.707 411.378 436.406 C 412.909 437.881 412.446 437.003 412.838 439.001 C 407.313 439.157 397.218 439.726 392.157 439.028 z"/>
<path transform="translate(0,0)" fill="rgb(65,98,60)" d="M 440.118 457.27 C 444.647 457.913 442.964 457.327 446.707 460.436 C 451.478 471.159 433.954 482.643 430.044 490.865 C 425.927 499.523 427.637 518.416 429.632 527.517 L 439.04 537.409 L 438.96 565.256 L 432.369 565.369 L 426.973 565.045 L 419.391 564.97 L 416.025 565.141 C 415.448 558.836 415.208 552.106 414.881 545.751 C 410.902 540.316 387.466 518.933 387.177 518.3 L 390.415 517.492 C 392.922 516.169 396.844 514.906 399.632 513.898 L 405.417 511.854 C 411.914 486.461 407.094 480.128 396.735 458.881 C 402.12 459.368 409.92 461.425 413.147 456.995 L 413.59 457.029 C 415.267 469.833 430.347 470.527 438.687 464.25 C 440.354 461.318 440.055 460.649 440.118 457.27 z"/>
<path transform="translate(0,0)" fill="rgb(65,98,60)" d="M 390.415 517.492 C 392.922 516.169 396.844 514.906 399.632 513.898 C 406.549 520.434 421.144 533.611 426.676 540.327 C 426.865 548.565 426.964 556.805 426.973 565.045 L 419.391 564.97 L 416.025 565.141 C 415.448 558.836 415.208 552.106 414.881 545.751 C 410.902 540.316 387.466 518.933 387.177 518.3 L 390.415 517.492 z"/>
<path transform="translate(0,0)" fill="rgb(157,180,133)" d="M 390.415 517.492 C 398.505 522.987 410.975 536.17 418.886 543.484 C 419.19 550.791 419.493 557.659 419.391 564.97 L 416.025 565.141 C 415.448 558.836 415.208 552.106 414.881 545.751 C 410.902 540.316 387.466 518.933 387.177 518.3 L 390.415 517.492 z"/>
<path transform="translate(0,0)" fill="rgb(149,166,126)" d="M 405.417 511.854 C 408.545 522.755 422.455 530.632 430.615 539.433 C 430.863 547.089 430.85 558.144 432.369 565.369 L 426.973 565.045 C 426.964 556.805 426.865 548.565 426.676 540.327 C 421.144 533.611 406.549 520.434 399.632 513.898 L 405.417 511.854 z"/>
<path transform="translate(0,0)" fill="rgb(157,180,133)" d="M 415.077 474.462 C 420.994 474.778 422.141 476.838 426.574 480.923 L 419.381 488.61 L 419.038 507.83 L 417.775 509.022 L 416.132 508.966 C 413.543 502.959 417.302 493.295 413.236 487.516 C 408.594 480.919 410.557 479.393 415.077 474.462 z"/>
<path transform="translate(0,0)" fill="rgb(65,98,60)" d="M 415.502 477.465 C 418.498 477.962 418.854 477.661 420.969 479.667 C 421.149 483.076 420.367 483.123 418.472 486.706 C 415.141 485.94 416.561 486.702 414.084 484.281 C 413.44 481.163 414.154 480.361 415.502 477.465 z"/>
<path transform="translate(0,0)" fill="rgb(157,180,133)" d="M 440.188 455.859 C 444.286 454.386 451.239 456.385 451.907 461.852 C 454.206 480.651 419.444 492.197 434.731 510.37 L 439.771 511.78 L 440.187 512.818 C 436.772 515.495 434.218 515.012 432.059 518.855 C 431.573 524.315 433.628 526.707 437.101 530.938 C 439.006 533.215 440.992 535.424 443.055 537.56 L 442.974 565.328 L 438.96 565.256 L 439.04 537.409 L 429.632 527.517 C 427.637 518.416 425.927 499.523 430.044 490.865 C 433.954 482.643 451.478 471.159 446.707 460.436 C 442.964 457.327 444.647 457.913 440.118 457.27 L 440.188 455.859 z"/>
<path transform="translate(0,0)" fill="rgb(0,0,0)" d="M 506.277 605.868 C 509.285 605.307 508.774 604.785 510.642 605.76 C 512.599 606.185 516.223 607.099 518.066 607.266 C 520.462 606.051 519.53 606.386 522.266 606.101 L 525.465 607.816 C 526.595 610.666 528.056 614.074 528.88 616.95 L 526.879 616.64 C 517.293 625.531 505.655 622.015 505.659 607.164 L 506.277 605.868 z"/>
<path transform="translate(0,0)" fill="rgb(157,180,133)" d="M 510.642 605.76 C 512.599 606.185 516.223 607.099 518.066 607.266 C 517.356 612.363 517.821 614.586 514.588 617.876 L 512.55 617.752 C 509.032 613.306 509.617 610.965 510.642 605.76 z"/>
<path transform="translate(0,0)" fill="rgb(74,74,73)" d="M 522.266 606.101 L 525.465 607.816 C 526.595 610.666 528.056 614.074 528.88 616.95 L 526.879 616.64 C 525.652 612.328 524.309 610.067 522.266 606.101 z"/>
<path transform="translate(0,0)" fill="rgb(157,180,133)" d="M 511.062 565.908 C 513.125 570.682 514.912 574.89 516.691 579.813 C 516.364 587.05 518.359 590.498 521.74 596.921 C 513.948 596.119 499.533 577.962 504.203 569.375 C 507.286 566.854 507.173 567.011 511.062 565.908 z"/>
<path transform="translate(0,0)" fill="rgb(72,97,63)" d="M 511.062 565.908 C 513.125 570.682 514.912 574.89 516.691 579.813 C 514.078 582.445 515.01 583.175 511.743 584.563 C 507.774 580.827 505.325 575.894 507.629 570.652 C 509.85 568.89 510.291 568.651 511.062 565.908 z"/>
<path transform="translate(0,0)" fill="rgb(157,180,133)" d="M 505.659 607.164 C 504.985 606.973 503.877 606.293 503.202 605.925 C 500.668 601.232 496.671 594.685 497.41 589.366 C 501.038 594.157 503.975 600.334 506.277 605.868 L 505.659 607.164 z"/>
<path transform="translate(0,0)" fill="rgb(157,180,133)" d="M 464.886 600.001 C 469.573 598.286 478.287 599.227 483.597 599.502 C 480.765 603.64 474.856 601.865 469.866 602.671 L 464.918 601.437 L 464.886 600.001 z"/>
<path transform="translate(0,0)" fill="rgb(149,166,126)" d="M 464.326 586.977 C 469.71 585.814 474.978 585.734 480.274 587.39 L 480.983 589.07 C 475.365 589.557 471.676 590.159 466.069 589.04 C 465.57 588.484 464.666 587.569 464.326 586.977 z"/>
<path transform="translate(0,0)" fill="rgb(149,166,126)" d="M 526.879 616.64 L 528.88 616.95 C 529.89 620.319 531.642 624.816 531.269 628.148 L 530.677 629.015 C 527.811 624.656 527.078 621.7 526.879 616.64 z"/>
<path transform="translate(0,0)" fill="rgb(157,180,133)" d="M 467.402 525.429 C 472.164 526.081 476.746 527.487 476.86 532.837 C 474.111 537.659 460.95 542.426 453.966 546.568 L 453.692 561.25 C 453.715 563.717 454.034 562.558 452.672 564.709 L 451.116 564.05 C 449.984 559.431 450.941 552.958 451.526 548.19 C 452.147 543.12 458.184 540.192 462.409 537.583 C 463.769 532.445 464.155 529.77 467.402 525.429 z"/>
<path transform="translate(0,0)" fill="rgb(65,98,60)" d="M 467.846 530.339 C 469.406 529.2 471.582 529.467 472.821 530.948 C 474.061 532.429 473.939 534.617 472.544 535.952 C 471.555 536.898 470.121 537.214 468.826 536.773 C 467.531 536.332 466.589 535.206 466.383 533.854 C 466.177 532.501 466.741 531.146 467.846 530.339 z"/>
<path transform="translate(0,0)" fill="rgb(157,180,133)" d="M 486.147 529.657 L 488.486 529.844 C 499.825 537.231 489.458 545.015 481.602 548.886 L 481.166 550.377 C 478.113 560.599 480.563 567.97 477.079 575.549 C 473.774 578.503 468.798 580.233 465.526 576.521 C 467.97 574.103 467.797 574.843 471.998 574.154 C 472.529 574.309 473.785 574.238 474.415 574.237 C 476.511 571.345 476.016 557.565 479.125 548.401 C 483.286 545.989 490.301 542.916 489.207 536.998 L 487.185 537.033 C 483.117 539.426 481.539 543.493 479.12 547.772 C 480.958 541.675 483.694 535.567 486.147 529.657 z"/>
<path transform="translate(0,0)" fill="rgb(157,180,133)" d="M 502.712 556.375 L 506.037 557.351 L 506.171 558.926 C 503.025 561.573 500.529 562.97 497.003 565.123 C 496.704 565.331 495.17 565.81 494.758 565.952 L 494.534 564.283 C 497.255 560.265 498.788 559.436 502.712 556.375 z"/>
<path transform="translate(0,0)" fill="rgb(236,96,94)" d="M 1093.99 901.877 C 1112.63 907.1 1163.73 930.461 1181.87 937.1 C 1191.05 940.463 1238.22 1021.81 1246.66 1035.65 C 1233.29 1032.79 1216.36 1031.11 1202.76 1029.7 L 1118.37 1021.75 C 1116.18 1005.17 1111.76 986.789 1108.25 970.252 C 1117.68 972.119 1139.82 977.014 1147.81 970.958 C 1150.3 959.459 1113.23 957.499 1105.25 956.676 C 1101.98 938.59 1097.4 920.17 1093.99 901.877 z"/>
<path transform="translate(0,0)" fill="rgb(176,167,157)" d="M 1474.13 701.896 L 1630.51 701.838 C 1630.11 742.101 1629.69 785.7 1630.62 825.702 L 1616.92 825.973 L 1616.97 740.984 C 1606.17 733.611 1597.11 730.514 1584.62 727.389 C 1582.56 748.177 1585.08 777.835 1584.1 799.203 C 1583.74 807.062 1585.01 817.817 1583.39 825.201 C 1579.91 826.192 1579.52 825.938 1575.98 825.639 C 1574.23 822.741 1574.97 786.967 1574.98 780.745 L 1575.02 725.702 C 1558.05 722.538 1547.65 723.189 1530.62 725.434 C 1530.63 737.475 1532.05 821.826 1529.31 825.894 C 1526.19 826.241 1525.09 826.698 1522.46 825.051 C 1518.79 819.382 1520.76 802.706 1520.77 794.994 C 1520.87 772.677 1520.76 750.36 1520.43 728.045 C 1508.78 729.687 1498.01 734.828 1487.94 740.632 L 1487.98 826.014 L 1474.13 825.918 L 1474.13 701.896 z"/>
<path transform="translate(0,0)" fill="rgb(65,98,60)" d="M 339.301 563.468 C 339.205 560.3 340.541 554.662 340.899 551.311 C 343.41 527.777 367.259 522.878 387.177 518.3 C 387.466 518.933 410.902 540.316 414.881 545.751 C 415.208 552.106 415.448 558.836 416.025 565.141 C 410.959 565.257 412.063 564.512 408.367 566.889 C 404.177 574.082 405.947 589.333 405.944 598.576 C 405.968 603.165 406.163 608.922 405.892 613.409 L 404.913 612.929 L 393.138 613.16 C 388.139 616.713 386.449 619.426 380.16 617.561 L 379.983 615.099 C 378.57 609.104 378.302 606.386 377.8 600.421 L 376.602 590.096 C 375.572 586.264 375.401 583.532 372.371 581.168 C 365.234 580.682 364.374 590.816 363.237 596.535 C 361.943 603.048 360.794 608.682 359.116 615.117 L 358.752 617.733 C 355.883 628.016 351.012 649.936 348.026 658.333 L 342.369 657.459 L 340.74 663.765 C 338.93 661.503 337.914 659.641 335.238 658.741 L 335.252 657.96 L 334.363 654.931 C 331.568 652.456 333.24 653.274 328.847 653.177 L 324.407 652.031 C 322.335 649.008 323.322 648.886 324.171 643.858 C 325.291 634.939 327.729 624.367 329.449 615.302 C 331.563 599.069 335.76 579.649 339.301 563.468 z"/>
<path transform="translate(0,0)" fill="rgb(157,180,133)" d="M 339.873 591.479 C 341.569 582.971 348.215 542.442 352.47 539.237 C 356.65 539.689 354.721 539.001 358.299 541.79 C 359.178 543.88 359.905 544.798 358.888 547.057 C 358.08 548.852 355.912 550.905 354.59 552.386 C 346.06 561.949 338.701 615.106 334.074 631.041 C 340.085 641.868 341.842 644.806 342.369 657.459 L 340.74 663.765 C 338.93 661.503 337.914 659.641 335.238 658.741 L 335.252 657.96 L 334.363 654.931 C 331.568 652.456 333.24 653.274 328.847 653.177 L 324.407 652.031 C 322.335 649.008 323.322 648.886 324.171 643.858 C 325.291 634.939 327.729 624.367 329.449 615.302 L 330.266 616.849 L 331.679 616.535 C 332.827 613.895 333.31 612.968 335.147 610.764 L 339.873 591.479 z"/>
<path transform="translate(0,0)" fill="rgb(65,98,60)" d="M 329.449 615.302 L 330.266 616.849 L 331.679 616.535 C 332.827 613.895 333.31 612.968 335.147 610.764 C 334.247 616.007 332.22 626.257 332.45 631.154 C 333.001 642.917 344.279 647.232 335.252 657.96 L 334.363 654.931 C 331.568 652.456 333.24 653.274 328.847 653.177 L 324.407 652.031 C 322.335 649.008 323.322 648.886 324.171 643.858 C 325.291 634.939 327.729 624.367 329.449 615.302 z"/>
<path transform="translate(0,0)" fill="rgb(149,166,126)" d="M 324.171 643.858 C 327.626 645.014 330.776 647.779 331.394 651.494 C 330.627 652.023 329.644 652.771 328.847 653.177 L 324.407 652.031 C 322.335 649.008 323.322 648.886 324.171 643.858 z"/>
<path transform="translate(0,0)" fill="rgb(65,98,60)" d="M 405.245 598.837 L 405.944 598.576 C 405.968 603.165 406.163 608.922 405.892 613.409 L 404.913 612.929 L 393.138 613.16 C 388.139 616.713 386.449 619.426 380.16 617.561 L 379.983 615.099 C 378.57 609.104 378.302 606.386 377.8 600.421 L 381.711 602.163 C 385.36 605.47 401.991 602.127 405.245 598.837 z"/>
<path transform="translate(0,0)" fill="rgb(157,180,133)" d="M 379.983 615.099 C 386.064 612.369 397.796 608.176 404.204 610.689 L 404.913 612.929 L 393.138 613.16 C 388.139 616.713 386.449 619.426 380.16 617.561 L 379.983 615.099 z"/>
<path transform="translate(0,0)" fill="rgb(157,180,133)" d="M 376.602 590.096 L 381.04 591.269 L 381.91 590.655 C 388.606 590.51 388.16 591.042 392.012 596.554 C 397.643 599.621 399.058 596.199 405.245 598.837 C 401.991 602.127 385.36 605.47 381.711 602.163 L 377.8 600.421 L 376.602 590.096 z"/>
<path transform="translate(0,0)" fill="rgb(72,97,63)" d="M 376.602 590.096 L 381.04 591.269 L 381.91 590.655 C 384.528 593.075 386.71 594.59 388.017 597.864 C 383.932 601.936 383.236 596.483 381.711 602.163 L 377.8 600.421 L 376.602 590.096 z"/>
<path transform="translate(0,0)" fill="rgb(72,97,63)" d="M 339.301 563.468 C 340.513 569.351 337.715 579.184 336.336 585.476 L 338.445 585.692 C 339.052 587.914 339.438 589.227 339.873 591.479 L 335.147 610.764 C 333.31 612.968 332.827 613.895 331.679 616.535 L 330.266 616.849 L 329.449 615.302 C 331.563 599.069 335.76 579.649 339.301 563.468 z"/>
<path transform="translate(0,0)" fill="rgb(157,180,133)" d="M 358.752 617.733 C 354.858 618.001 351.516 618.719 348.177 616.836 C 345.356 613.271 346.051 615.202 345.634 610.987 L 347.079 609.337 C 350.868 609.51 354.738 612.825 359.116 615.117 L 358.752 617.733 z"/>
<path transform="translate(0,0)" fill="rgb(0,0,0)" d="M 367.28 537.114 L 395.796 536.626 C 396.224 542.743 396.572 547.587 396.463 553.732 C 386.622 553.84 376.78 553.732 366.944 553.408 C 366.381 546.224 366.124 544.3 367.28 537.114 z"/>
<path transform="translate(0,0)" fill="rgb(174,137,96)" d="M 371.441 542.035 C 379.296 541.721 388.02 539.343 390.877 547.663 C 382.85 547.663 373.962 550.875 371.441 542.035 z"/>
<path transform="translate(0,0)" fill="rgb(157,180,133)" d="M 368.356 564.219 C 388.362 562.909 391.669 564.697 402.678 580.888 C 393.741 576.615 388.563 568.825 382.168 566.942 C 353.305 566.531 366.318 574.102 356.037 580.298 C 352.529 580.765 353.54 581.342 351.458 580.001 C 360.207 575.09 354.458 567.935 368.356 564.219 z"/>
<path transform="translate(0,0)" fill="rgb(215,234,237)" d="M 1166.99 1056.88 C 1202.23 1068.99 1272.04 1120.01 1295.31 1149.89 C 1262.03 1150.63 1214.11 1146.88 1179.27 1145.87 C 1178.26 1135.05 1174.61 1120.11 1172.59 1108.88 C 1169.57 1091.69 1167.69 1074.32 1166.99 1056.88 z"/>
<path transform="translate(0,0)" fill="rgb(215,234,237)" d="M 1185.25 1160.21 C 1222.3 1158.85 1273.51 1162.88 1312.16 1164.12 C 1315.22 1172.48 1318.84 1181.24 1322.11 1189.57 C 1312.39 1193.22 1301.38 1198.02 1291.68 1202.02 C 1275.09 1209.39 1267.54 1214.06 1249.28 1210.65 C 1239.88 1216.84 1233.59 1223.41 1222.9 1229.55 C 1204.14 1205.6 1194.92 1189.41 1185.25 1160.21 z"/>
<path transform="translate(0,0)" fill="rgb(176,167,157)" d="M 1438.66 702.363 C 1441.41 701.979 1443.25 701.331 1445.58 702.667 C 1446.61 713.918 1445.53 822.05 1443.48 826.002 L 1440.59 825.581 C 1439.55 824.248 1438.9 822.656 1438.7 820.978 C 1438.38 818.361 1438.74 802.236 1438.74 798.35 L 1438.94 743.351 C 1431.85 735.885 1428.55 734.643 1419.36 730.681 C 1418.05 751.129 1419.22 775.114 1418.62 795.794 C 1418.35 805.303 1419.16 815.936 1418.09 825.313 L 1416.01 826.826 C 1408.07 816.362 1415.6 749.888 1411.55 731.044 C 1409.53 729.244 1408.1 729.061 1405.47 728.844 C 1387.93 727.401 1390.04 734.972 1390.26 748.75 L 1390.1 796.999 C 1390.14 804.238 1392.55 821.584 1386.78 825.975 C 1380.27 821.721 1388.26 748.814 1382.25 734.453 L 1379.96 734.023 C 1373.87 736.082 1368.52 740.73 1364.31 745.477 C 1365.3 769.053 1363.97 793.753 1364.89 817.479 C 1365.04 821.399 1364.18 823.437 1361.53 825.967 L 1359.41 825.677 C 1355.29 821.068 1356.94 794.468 1356.95 786.764 C 1357.09 761.58 1357.02 736.396 1356.75 711.214 C 1378.5 710.555 1416.31 705.277 1438.66 702.363 z"/>
<path transform="translate(0,0)" fill="rgb(176,167,157)" d="M 1474.17 665.146 L 1630.73 665.025 L 1630.41 695.72 L 1474.25 695.902 L 1474.17 665.146 z"/>
<path transform="translate(0,0)" fill="rgb(176,167,157)" d="M 1659.23 701.771 C 1686.15 703.784 1719.78 708.714 1747.87 711.347 C 1747.85 735.261 1747.98 759.174 1748.25 783.086 C 1748.31 790.166 1750.3 822.94 1745.83 827.058 L 1744.37 826.686 C 1742.49 824.668 1740.79 821.067 1740.69 818.301 C 1739.74 793.666 1741.48 768.381 1739.98 743.774 C 1732.95 737.361 1729.78 735.981 1721.29 732.534 C 1719.68 758.207 1721.91 798.011 1720.29 825.026 C 1719.74 825.725 1719.2 826.423 1718.65 827.122 L 1718 826.721 L 1719.56 826.773 L 1717.11 825.719 C 1712.4 816.013 1714.83 773.838 1714.8 760.5 C 1714.67 751.339 1716.75 741.766 1713.22 733.075 C 1710.39 726.113 1693.5 729.046 1693.25 731.01 C 1689.45 761.028 1694.28 794.867 1691.83 825.108 L 1690.27 826.125 L 1688.51 825.584 C 1683.13 817.07 1689.51 743.173 1684.59 732.627 L 1682.48 731.915 C 1676.06 733.89 1671.11 738.63 1666.52 743.335 C 1665.94 759.06 1669.37 818.081 1663.72 826.963 L 1661.21 825.652 C 1659.09 820.043 1659.65 718.004 1659.23 701.771 z"/>
<path transform="translate(0,0)" fill="rgb(188,200,99)" d="M 1346.9 1275.35 C 1349.43 1274.95 1349.29 1274.86 1351.72 1275.57 C 1358.97 1284.08 1371.44 1334.9 1374.47 1347.91 C 1349.67 1338.42 1324.91 1328.78 1300.22 1319.01 C 1281.41 1311.52 1262.2 1303.61 1243.19 1296.79 C 1262.98 1292.95 1282.75 1288.94 1302.48 1284.77 C 1317.07 1281.62 1332.28 1277.71 1346.9 1275.35 z"/>
<path transform="translate(0,0)" fill="rgb(215,234,237)" d="M 1324.27 1202.96 C 1325.01 1203.13 1325.75 1203.29 1326.49 1203.46 C 1333.34 1213.64 1345.08 1248.72 1349.29 1261.56 C 1319.75 1267.97 1310.48 1271.44 1281.25 1265.59 C 1270.29 1263.79 1261.57 1259.87 1252.75 1253.33 C 1264.92 1241.46 1263.6 1240.94 1271.14 1225.95 C 1290.26 1216.86 1304.44 1210.73 1324.27 1202.96 z"/>
<path transform="translate(0,0)" fill="rgb(27,61,91)" d="M 1540.75 487.114 C 1547.85 486.822 1558.6 486.419 1565.42 487.258 C 1578.71 488.895 1604.3 516.007 1602.05 529.285 C 1593.97 530.015 1595.27 530.123 1592.42 537.425 C 1587.94 538.819 1572.64 537.896 1567.25 537.749 C 1550.52 537.584 1533.39 538.442 1516.68 537.958 C 1509.12 537.739 1512.96 533.779 1509.59 530.65 C 1507.17 528.4 1505.14 531.149 1502.59 528.042 C 1502.55 511.892 1525.7 491.227 1540.75 487.114 z"/>
<path transform="translate(0,0)" fill="rgb(176,167,157)" d="M 1507.08 579.908 L 1597.42 579.931 C 1598.23 604.569 1597.53 630.09 1597.92 654.921 L 1582.99 654.85 L 1582.97 615.75 L 1582.56 612.633 C 1570.08 595.577 1538.34 601.022 1522.67 611.371 L 1522.39 654.982 L 1507.08 654.904 L 1507.08 579.908 z"/>
<path transform="translate(0,0)" fill="rgb(130,97,53)" d="M 1201.85 1295.34 L 1316.76 1340.19 C 1333.58 1346.77 1351.41 1352.68 1367.84 1360.19 C 1372.12 1362.15 1375.97 1364.38 1376.75 1369.17 C 1374.11 1371.65 1374.41 1370.89 1370.12 1371.64 C 1349.94 1373.74 1329.81 1376.37 1309.77 1379.52 C 1268.17 1328.7 1268.16 1322.15 1203.13 1309.49 C 1202.59 1304.87 1202.25 1300 1201.85 1295.34 z"/>
<path transform="translate(0,0)" fill="rgb(105,138,68)" d="M 725.404 681.494 L 738.937 681.328 C 726.888 690.474 658.164 736.132 646.945 732.68 C 640.649 716.085 635.827 698.956 630.41 682.041 L 725.404 681.494 z"/>
<path transform="translate(0,0)" fill="rgb(74,74,73)" d="M 1547.11 730.412 C 1555 729.899 1560 730.1 1567.96 730.516 C 1569.32 755.57 1568.23 781.36 1568.62 806.479 C 1568.72 812.428 1568.62 818.827 1567.93 824.727 C 1565.64 826.428 1564.81 825.778 1561.25 825.818 L 1537.34 826.023 C 1538.07 805.307 1537.02 783.373 1537.37 762.568 C 1537.53 753.182 1536.72 741.365 1537.97 732.255 C 1540.31 730.559 1544.03 730.687 1547.11 730.412 z"/>
<path transform="translate(0,0)" fill="rgb(174,137,96)" d="M 1251.78 1225.1 C 1252.91 1226.13 1252.85 1226.78 1253.51 1228.46 C 1252.28 1238.72 1231.35 1257.02 1223.68 1264.47 C 1211.33 1264.66 1178.29 1267.21 1168.79 1275.26 C 1167.76 1278.33 1167.68 1276.86 1169.11 1279.82 C 1173.77 1283.76 1177.64 1282.79 1183.83 1282.37 C 1186.21 1292.08 1188.97 1302.02 1191.52 1311.71 C 1183.15 1314.54 1176.15 1317.92 1168.19 1321.62 C 1165.2 1323.3 1164.46 1323.9 1161.01 1324.58 C 1153.67 1316.68 1145.61 1278.72 1144.49 1266.2 C 1175.37 1235.71 1208.89 1277.61 1236.9 1239.31 C 1239.06 1236.37 1248.7 1227.95 1251.78 1225.1 z"/>
<path transform="translate(0,0)" fill="rgb(176,167,157)" d="M 1456.48 652.455 L 1467.83 652.56 C 1467.21 697.876 1467.89 775.68 1467.75 824.018 C 1467.42 824.546 1467.09 825.073 1466.76 825.601 L 1463.25 825.842 L 1450.78 825.601 C 1450.85 790.673 1450.93 754.93 1452.6 720.033 C 1453.26 706.407 1450.86 663.933 1453.61 653.102 L 1456.48 652.455 z"/>
<path transform="translate(0,0)" fill="rgb(176,167,157)" d="M 1637.34 652.751 L 1651.79 652.662 L 1654.22 825.923 L 1637.61 825.987 L 1637.34 652.751 z"/>
<path transform="translate(0,0)" fill="rgb(174,137,96)" d="M 1166.65 1039.27 C 1193.82 1042.91 1225.71 1046.49 1252.88 1048.17 C 1262.69 1064.31 1285.36 1108.74 1293.44 1126.43 C 1288.13 1123.31 1270.09 1106.55 1264.33 1101.6 C 1249.85 1089.16 1234.4 1077.91 1218.13 1067.93 C 1208.97 1062.34 1170.27 1044.86 1166.65 1039.27 z"/>
<path transform="translate(0,0)" fill="rgb(176,167,157)" d="M 1442.36 666.355 L 1445.24 666.409 C 1447.9 670.942 1446.38 689.104 1446.14 695.31 C 1418.14 698.135 1390.17 701.287 1362.24 704.765 L 1358.97 704.942 C 1355.37 701.148 1356.74 683.972 1356.75 677.629 C 1385.37 674.54 1413.91 670.781 1442.36 666.355 z"/>
<path transform="translate(0,0)" fill="rgb(176,167,157)" d="M 1659.23 666.336 C 1689.27 669.675 1717.85 674.421 1747.99 677.314 C 1748.02 686.611 1747.94 695.908 1747.74 705.202 C 1719.41 701.322 1687.98 698.678 1659.02 695.116 C 1658.91 685.348 1658.8 676.118 1659.23 666.336 z"/>
<path transform="translate(0,0)" fill="rgb(188,200,99)" d="M 1123.54 1038.04 C 1133.33 1041.88 1143.15 1045.94 1152.9 1049.9 C 1155.19 1086.93 1159.13 1109.96 1166.63 1145.59 C 1159.72 1145.74 1152.41 1145.62 1145.46 1145.63 C 1137.92 1108.01 1127.89 1077.52 1123.54 1038.04 z"/>
<path transform="translate(0,0)" fill="rgb(176,167,157)" d="M 1341.53 665.965 C 1346 666.068 1347.38 665.458 1350.51 667.608 C 1349.1 717.853 1350.59 773.664 1350.6 824.457 C 1347.34 826.408 1347.18 825.713 1342.74 825.817 L 1329.66 825.779 C 1332.9 772.457 1336.86 719.181 1341.53 665.965 z"/>
<path transform="translate(0,0)" fill="rgb(174,137,96)" d="M 1513.83 1363.28 C 1514.31 1363.59 1514.48 1364.22 1514.76 1364.71 C 1504.77 1375.17 1481.7 1383.15 1467.79 1388.91 C 1437.98 1383.51 1412.86 1385.57 1384.3 1395.01 C 1354.36 1404.91 1331.03 1406.25 1300.27 1399.37 C 1296.95 1398.2 1293.81 1396.67 1290.61 1395.2 C 1339.25 1390.44 1387.75 1384.32 1436.05 1376.84 C 1461.46 1372.95 1488.81 1368.84 1513.83 1363.28 z"/>
<path transform="translate(0,0)" fill="rgb(176,167,157)" d="M 1755.02 665.653 C 1758.43 665.524 1760.19 665.167 1763.36 666.471 C 1765.3 672.575 1766.78 702.719 1767.31 710.296 L 1772.36 774.505 C 1773.52 790.392 1774.36 809.812 1776.6 825.351 C 1772.15 826.042 1760.64 825.81 1755.58 825.823 C 1755.79 817.014 1755.72 807.803 1755.57 798.984 C 1754.79 754.64 1756.32 709.952 1755.02 665.653 z"/>
<path transform="translate(0,0)" fill="rgb(176,167,157)" d="M 1507.2 549.034 L 1597.69 549.035 L 1597.59 573.725 L 1507.03 573.361 L 1507.2 549.034 z"/>
<path transform="translate(0,0)" fill="rgb(74,74,73)" d="M 1544.9 608.134 C 1584.47 603.981 1577.19 625.236 1576.54 655.075 L 1561.16 655.028 L 1528.63 654.982 L 1528.68 615.241 C 1535.43 611.606 1537.62 610.42 1544.9 608.134 z"/>
<path transform="translate(0,0)" fill="rgb(27,61,91)" d="M 1584.75 489.665 C 1607.15 493.032 1633.34 501.542 1651.37 515.614 C 1664.22 525.643 1668 531.705 1670 546.943 C 1661.95 546.117 1630.72 541.176 1625.08 537.062 C 1624.08 534.103 1624.15 533.742 1622.16 531.243 C 1618.34 529.376 1614.51 529.999 1610.12 530.117 C 1603 510.986 1600.82 502.878 1584.75 489.665 z"/>
<path transform="translate(0,0)" fill="rgb(27,61,91)" d="M 1518.02 489.299 L 1518.14 489.399 C 1518.6 491.715 1515.17 494.112 1512.77 496.629 C 1503.66 506.191 1499.58 518.001 1494.71 530.048 C 1483.12 529.766 1484.68 528.627 1478.87 537.822 C 1467.34 541.351 1449.45 544.404 1437.23 546.679 L 1436.11 546.165 C 1435.02 542.103 1436.91 534.661 1439.36 531.233 C 1457.03 506.53 1489.87 496.024 1518.02 489.299 z"/>
<path transform="translate(0,0)" fill="rgb(176,167,157)" d="M 1623.25 579.69 C 1639.85 581.877 1659.21 585.642 1675.96 588.496 C 1676 597.827 1677.13 651.102 1675.61 656.576 C 1671.79 657.683 1673.67 657.651 1669.77 656.594 C 1667.74 653.24 1669.04 623.137 1668.81 615.26 C 1659.94 604.679 1648.93 599.958 1636.66 608.16 C 1626.11 615.213 1632.63 631.186 1630.54 642.839 C 1627.31 645.051 1626.42 645.806 1623.59 648.523 L 1622.75 647.937 C 1624.75 634.099 1623.39 595.258 1623.25 579.69 z"/>
<path transform="translate(0,0)" fill="rgb(176,167,157)" d="M 1479.84 580.325 L 1481.28 581.488 C 1481.72 594.714 1481.35 608.268 1481.29 621.524 C 1481.25 629.699 1481.72 639.618 1481.04 647.601 L 1479.96 647.569 C 1478.29 646.073 1476.59 644.605 1474.86 643.166 C 1474.88 636.378 1476.25 619.094 1473.94 613.932 C 1466.94 598.296 1440.9 602.757 1436.38 618.394 C 1436.73 627.991 1438.38 646.774 1435.38 655.092 C 1432.65 657.602 1434.27 656.91 1430.21 656.834 C 1427.63 652.627 1428.85 597.588 1428.86 588.051 C 1445.88 585.613 1462.87 583.037 1479.84 580.325 z"/>
<path transform="translate(0,0)" fill="rgb(74,74,73)" d="M 1590.64 735.634 C 1596.71 738.436 1604.23 741.061 1610.86 744.042 L 1610.99 825.991 L 1590.78 826.104 L 1590.64 735.634 z"/>
<path transform="translate(0,0)" fill="rgb(65,98,60)" d="M 335.238 658.741 C 337.914 659.641 338.93 661.503 340.74 663.765 C 339.332 666.552 336.901 670.82 336.33 673.733 C 340.031 676.86 339.129 677.04 338.207 681.904 C 339.357 684.018 338.822 683.368 340.593 685.027 C 338.119 692.097 334.194 704.737 331.014 710.863 L 330.912 713.385 C 331.128 720.811 328.454 732.135 323.008 737.508 C 316.163 744.26 309.042 743.316 300.207 743.332 C 302.286 740.488 304.938 737.748 304.861 734.423 L 303.319 733.286 C 295.889 734.643 293.538 737.375 287.801 742.205 C 279.189 742.972 269.524 742.822 260.8 742.884 C 277.224 726.925 286.287 727.175 307.941 723.532 C 310.775 714.485 312.239 705.602 313.978 696.308 L 327.046 696.699 C 327.214 693.786 334.093 664.199 335.238 658.741 z"/>
<path transform="translate(0,0)" fill="rgb(149,166,126)" d="M 335.238 658.741 C 337.914 659.641 338.93 661.503 340.74 663.765 C 339.332 666.552 336.901 670.82 336.33 673.733 C 340.031 676.86 339.129 677.04 338.207 681.904 C 339.357 684.018 338.822 683.368 340.593 685.027 C 338.119 692.097 334.194 704.737 331.014 710.863 L 330.912 713.385 C 328.437 718.531 322.847 720.315 318.013 717.445 C 315.349 709.781 325.279 703.363 327.046 696.699 C 327.214 693.786 334.093 664.199 335.238 658.741 z"/>
<path transform="translate(0,0)" fill="rgb(72,97,63)" d="M 336.33 673.733 C 340.031 676.86 339.129 677.04 338.207 681.904 C 339.357 684.018 338.822 683.368 340.593 685.027 C 338.119 692.097 334.194 704.737 331.014 710.863 C 327.043 697.881 331.835 686.178 336.33 673.733 z"/>
<path transform="translate(0,0)" fill="rgb(74,74,73)" d="M 1511.52 736.806 C 1513.02 736.793 1512.11 736.696 1514.19 737.51 C 1515.03 742.78 1514.5 759.458 1514.47 765.497 L 1514.21 826.08 L 1498.75 826.016 C 1495.97 826.004 1497.16 826.507 1494.97 824.877 C 1494.2 816.479 1494.68 802.383 1494.72 793.422 L 1494.62 744.136 L 1511.52 736.806 z"/>
<path transform="translate(0,0)" fill="rgb(188,200,99)" d="M 1148.44 1157.99 C 1155.43 1158.54 1162.44 1158.85 1169.45 1158.92 C 1174.72 1170.7 1178.72 1182.31 1184.6 1194.19 C 1191.78 1208.69 1199.58 1221.01 1208.27 1234.62 L 1197.26 1238.58 C 1189.75 1241.06 1184.92 1241.13 1177.13 1241.56 C 1191.43 1212.8 1186.62 1198.71 1154.47 1190.19 C 1153.56 1181.8 1150.2 1166.41 1148.44 1157.99 z"/>
<path transform="translate(0,0)" fill="rgb(122,103,136)" d="M 1131.59 864.857 C 1138.35 867.538 1166.81 910.379 1171.7 918.992 C 1163.41 915.15 1153.83 911.5 1145.29 908.034 C 1129.51 900.737 1111.77 893.768 1095.61 886.981 C 1108.16 879.412 1119.14 872.904 1131.59 864.857 z"/>
<path transform="translate(0,0)" fill="rgb(105,138,68)" d="M 568.835 680.994 C 571.311 684.294 573.866 698.238 576.524 703.642 C 584.948 720.772 594.236 737.203 603.589 753.809 C 596.534 757.877 592.733 759.603 585.157 762.719 L 576.954 767.632 C 574.302 753.806 572.925 739.343 570.847 725.389 C 568.377 708.797 564.674 701.968 552.249 691.205 C 557.923 687.265 562.859 684.435 568.835 680.994 z"/>
<path transform="translate(0,0)" fill="rgb(176,167,157)" d="M 1603.91 540.055 C 1607.86 540.072 1612.21 540.391 1616.19 540.596 L 1617.09 654.882 L 1604.14 654.96 C 1603.59 617.098 1604.1 578.085 1603.91 540.055 z"/>
<path transform="translate(0,0)" fill="rgb(176,167,157)" d="M 1488.93 540.034 L 1501.11 540.055 L 1501.06 654.942 L 1488 654.859 C 1489.26 617.609 1488.89 577.454 1488.93 540.034 z"/>
<path transform="translate(0,0)" fill="rgb(27,61,91)" d="M 1194.88 1324.04 C 1205.59 1323.49 1220.97 1326.93 1231.77 1329.12 C 1231.82 1336.42 1231.51 1341.37 1230.87 1348.67 L 1203.43 1349.57 C 1183.48 1349.53 1179.29 1350.68 1164.71 1337.16 C 1174.09 1333.89 1183.75 1327.86 1194.88 1324.04 z"/>
<path transform="translate(0,0)" fill="rgb(176,167,157)" d="M 1475.99 550.341 C 1479.5 549.87 1478.18 549.346 1480.47 550.888 C 1482.2 556.674 1481.52 567.238 1481.44 573.612 C 1465.79 576.207 1449.92 578.509 1434.23 580.905 C 1430.47 581.26 1431.87 581.867 1429.45 580.128 C 1427.78 573.954 1428.59 566.167 1428.71 559.47 C 1442.48 555.817 1461.61 552.881 1475.99 550.341 z"/>
<path transform="translate(0,0)" fill="rgb(176,167,157)" d="M 1623.29 549.686 C 1636.85 551.294 1662.53 556.285 1675.95 559.593 L 1675.82 582.063 C 1659.05 578.715 1640.56 576.3 1623.33 573.13 L 1623.29 549.686 z"/>
<path transform="translate(0,0)" fill="rgb(176,167,157)" d="M 1420.41 546.598 L 1421.91 547.674 C 1422.91 551.059 1423.27 644.519 1421.94 657.5 C 1421.83 658.67 1418.63 659.972 1417.1 660.805 C 1414.8 659.892 1414.9 659.972 1413.03 658.363 C 1411.61 638.736 1417 573.264 1418.08 549.568 C 1418.85 548.578 1419.63 547.588 1420.41 546.598 z"/>
<path transform="translate(0,0)" fill="rgb(74,74,73)" d="M 1698.62 734.734 C 1702.06 734.772 1704.23 734.538 1707.47 735.758 C 1708.46 743.893 1707.97 760.221 1707.95 769.142 L 1708.07 825.983 C 1704.73 826.071 1702.33 826.504 1699.38 825.05 C 1698.21 817.519 1698.8 801.103 1698.84 792.609 C 1699.01 773.317 1698.94 754.024 1698.62 734.734 z"/>
<path transform="translate(0,0)" fill="rgb(74,74,73)" d="M 1396.9 734.917 C 1400.46 734.821 1400.82 734.764 1404.48 735.423 C 1406.72 738.358 1405.86 814.882 1405.97 826.118 C 1402.05 826.151 1401.35 826.141 1397.5 825.509 C 1396.61 821.361 1396.92 802.444 1396.91 797.094 L 1396.9 734.917 z"/>
<path transform="translate(0,0)" fill="rgb(176,167,157)" d="M 1682.6 547.228 L 1686.25 548.774 C 1688.65 554.776 1691.98 648.009 1692.45 659.424 C 1688.14 659.013 1686.11 659.457 1683.13 657.169 C 1681.8 645.432 1682.62 616.611 1682.6 603.723 C 1682.57 588.369 1681.35 561.704 1682.6 547.228 z"/>
<path transform="translate(0,0)" fill="rgb(74,74,73)" d="M 1454.92 611.031 C 1460.92 611.154 1463.05 612.672 1468.35 615.26 L 1468.35 642.199 L 1453.54 641.706 C 1448.66 641.812 1447.73 641.992 1443.87 645.006 L 1443.14 644.805 C 1443.14 637.48 1441.63 624.167 1444.11 617.892 C 1445.74 613.773 1450.86 612.451 1454.92 611.031 z"/>
<path transform="translate(0,0)" fill="rgb(174,137,96)" d="M 1245.29 1332.39 C 1254.51 1338.29 1291.03 1370.68 1290.23 1381.68 C 1287.13 1381.4 1284.13 1380.92 1281.04 1380.48 C 1268.21 1370.33 1257.24 1358.4 1244.3 1349.18 L 1245.29 1332.39 z"/>
<path transform="translate(0,0)" fill="rgb(74,74,73)" d="M 1647.9 611.121 C 1653.5 611.313 1656.43 613.395 1661.28 616.006 C 1661.91 625.468 1662.15 634.95 1662.01 644.431 C 1660.05 643.467 1659.03 642.738 1657.21 641.516 L 1637.13 642.092 C 1637.16 627.574 1631.5 615.797 1647.9 611.121 z"/>
<path transform="translate(0,0)" fill="rgb(174,137,96)" d="M 1156.52 1204.86 C 1161.9 1204.72 1166.93 1207.5 1169.67 1212.13 C 1172.35 1216.63 1172.45 1222.21 1169.95 1226.81 C 1167.45 1231.41 1162.72 1234.36 1157.49 1234.57 C 1149.24 1234.9 1142.31 1228.45 1142.04 1220.2 C 1141.77 1211.95 1148.27 1205.07 1156.52 1204.86 z"/>
<path transform="translate(0,0)" fill="rgb(130,97,53)" d="M 687.807 744.101 C 689.536 750.43 688.998 770.65 688.938 778.149 C 682.456 775.201 673.262 772.02 666.437 769.438 C 661.997 768.539 661.624 768.574 657.85 766.254 C 656.043 763.078 656.233 764.692 657.101 761.27 C 662.838 754.749 679.284 748.307 687.807 744.101 z"/>
<path transform="translate(0,0)" fill="rgb(74,74,73)" d="M 1425.08 741.363 C 1426.74 742.108 1428.47 742.783 1429.7 744.193 C 1435.79 751.166 1432.36 812.941 1432.48 825.674 C 1429.27 825.886 1428.86 826.138 1425.77 825.074 C 1423.64 818.242 1425.04 753.294 1425.08 741.363 z"/>
<path transform="translate(0,0)" fill="rgb(188,200,99)" d="M 1244.16 1265 C 1252.71 1269.51 1261.99 1272.72 1269.76 1277.21 L 1269.67 1278.08 C 1266.97 1278.15 1236.95 1284.86 1232.22 1285.83 C 1220.44 1288.06 1214.25 1285.56 1203.27 1281.66 C 1224.02 1278.74 1227.36 1277.71 1244.16 1265 z"/>
<path transform="translate(0,0)" fill="rgb(74,74,73)" d="M 1678.5 740.751 L 1679.38 742.03 C 1681.26 758.232 1679.67 805.901 1680.03 824.804 C 1680.05 825.776 1677.59 826.527 1676.18 827.201 L 1674.09 825.586 C 1672.08 819.932 1673.22 757.6 1673.22 747.109 C 1673.23 744.468 1676.37 742.418 1678.5 740.751 z"/>
<path transform="translate(0,0)" fill="rgb(0,0,0)" fill-opacity="0.0156863" d="M 369.854 608.088 C 373.434 620.099 375.262 632.838 376.448 645.298 C 372.958 649.3 373.622 647.823 372.502 652.912 L 373.721 654.124 C 375.152 653.082 376.081 651.757 377.118 651.043 C 377.709 653.274 377.545 652.551 377.392 654.949 C 372.933 658.664 361.944 657.113 355.488 656.846 C 359.275 641.207 365.083 623.48 369.854 608.088 z M 365.88 646.569 L 368.418 642.921 C 367.467 640.812 368.196 641.674 366.177 640.382 L 364.231 645.83 L 364.91 646.689 L 365.88 646.569 z"/>
<path transform="translate(0,0)" fill="rgb(74,74,73)" d="M 1375.37 743.416 L 1376.66 743.959 C 1379.73 749.344 1376.92 804.138 1377.9 814.606 C 1378.37 819.566 1378.48 824.272 1374.5 827.566 C 1371.56 825.396 1371.13 824.443 1371.16 820.608 C 1371.36 796.832 1370.1 772.701 1371.95 749.016 C 1372.11 746.977 1374.09 744.847 1375.37 743.416 z"/>
<path transform="translate(0,0)" fill="rgb(74,74,73)" d="M 1727.72 743.302 C 1729.02 743.958 1729.69 744.49 1730.74 745.552 C 1736.2 751.092 1733.97 815.154 1734.04 826.435 C 1730.52 825.767 1730.33 826.341 1728.11 824.264 C 1727.03 815.516 1727.36 800.595 1727.35 791.399 C 1727.18 775.366 1727.31 759.331 1727.72 743.302 z"/>
<path transform="translate(0,0)" fill="rgb(174,137,96)" d="M 551.702 630.014 C 555.185 631.631 556.862 637.75 558.284 641.438 C 549.971 646.22 539.845 650.852 531.12 655.094 L 529.243 654.656 C 526.933 651.802 526.025 647.498 524.926 643.881 C 534.675 637.984 541.28 634.729 551.702 630.014 z"/>
<path transform="translate(0,0)" fill="rgb(174,137,96)" d="M 1223.73 1361.34 C 1231.47 1362.92 1231.2 1366.39 1233.28 1373.17 C 1232.15 1378.26 1230.76 1382.37 1229.15 1387.29 C 1218.44 1386.75 1220.27 1368.48 1223.73 1361.34 z"/>
<path transform="translate(0,0)" fill="rgb(176,167,157)" d="M 321.703 658.232 C 324.321 659.088 324.243 658.918 326.159 660.847 C 327.731 668.697 323.009 682.654 320.76 690.859 C 318.424 690.312 319.144 690.636 317.24 688.867 C 314.844 680.333 319.296 666.844 321.703 658.232 z"/>
<path transform="translate(0,0)" fill="rgb(130,97,53)" d="M 1245.22 1367.52 C 1253.91 1372.77 1257.87 1377.5 1264.42 1385.24 L 1245.02 1385.23 C 1244.98 1379.41 1245.14 1373.36 1245.22 1367.52 z"/>
<path transform="translate(0,0)" fill="rgb(65,98,60)" d="M 342.369 657.459 L 348.026 658.333 C 345.312 667.163 342.833 676.064 340.593 685.027 C 338.822 683.368 339.357 684.018 338.207 681.904 C 339.129 677.04 340.031 676.86 336.33 673.733 C 336.901 670.82 339.332 666.552 340.74 663.765 L 342.369 657.459 z"/>
<path transform="translate(0,0)" fill="rgb(127,108,95)" d="M 968.061 1131.35 C 968.043 1124.3 967.6 1116.63 967.324 1109.53 C 968.793 1114.7 969.701 1118.79 970.768 1123.99 C 968.709 1127.37 968.852 1127.59 968.061 1131.35 z"/>
<path transform="translate(0,0)" fill="rgb(0,0,0)" d="M 1023.96 219.436 C 1057.34 216.911 1102.79 230.444 1128.9 251.687 C 1152.68 271.028 1168.35 303.619 1178.29 332.084 C 1203.41 335.78 1230.5 345.625 1249.7 363.105 C 1315.64 423.135 1289.66 539.828 1200.65 559.905 C 1169.21 566.997 1139.15 564.944 1106.73 564.921 L 1014.73 564.692 C 996.085 564.509 977.002 563.741 958.434 564.001 C 955.033 562.22 881.761 564.574 870.465 564.665 C 853.459 564.803 836.409 564.281 819.39 564.29 C 784.447 564.31 747.383 567.417 720.642 540.78 C 703.797 524.001 695.684 500.697 695.841 477.11 C 696.299 408.148 764.755 398.491 766.754 393.75 C 768.543 389.506 768.697 382.405 769.82 377.698 C 773.519 362.196 784.723 345.046 796.017 334.014 C 814.649 315.815 842.055 307.258 867.696 306.029 C 875.502 305.654 883.397 307.16 891.21 307.208 C 892.641 307.216 894.972 307.622 896.1 306.621 C 900.937 302.332 904.921 291.696 908.595 285.884 C 914.172 277.058 920.497 268.785 927.935 261.443 C 950.633 239.04 991.794 219.262 1023.96 219.436 z"/>
<path transform="translate(0,0)" fill="rgb(215,234,237)" d="M 1024.22 245.376 C 1074.2 237.966 1124.52 272.411 1144.72 316.755 C 1151.65 331.969 1154.25 342.301 1156.23 358.791 C 1164.44 358.684 1172.3 358.777 1180.41 359.577 C 1227.22 364.195 1259.39 401.453 1259.84 448.206 C 1261.69 485.756 1234.92 526.785 1196.85 534.863 C 1166.04 541.4 1124.25 539.018 1091.82 538.995 L 947.5 538.95 L 846.573 538.933 C 812.904 539.161 766.362 545.604 739.316 521.726 C 715.758 500.928 716.857 462.542 738.035 440.38 C 754.059 423.611 769.267 421.759 790.995 420.901 C 790.672 408.425 792.688 395.999 796.938 384.265 C 811.503 344.91 847.887 323.606 889.283 335.188 C 896.83 337.299 903.953 340.182 911.259 342.996 C 934.898 283.535 957.349 252.998 1024.22 245.376 z"/>
<path transform="translate(0,0)" fill="rgb(27,61,91)" d="M 1011.58 337.375 C 1054.57 334.915 1109.87 350.161 1137.08 385.362 C 1132.67 393.369 1131.31 394.609 1124.14 399.738 C 1093.45 377.405 1077.47 364.62 1039.06 359.388 C 1011.24 355.071 971.693 364.754 948.743 381.681 C 943.446 384.235 926.525 401.384 920.983 397.813 C 912.404 392.284 911.644 381.109 919.912 374.084 C 943.635 353.927 981.932 341.367 1011.58 337.375 z"/>
<path transform="translate(0,0)" fill="rgb(27,61,91)" d="M 1021.9 381.453 C 1041.69 381.793 1059.74 385.659 1077.36 394.8 C 1098.45 405.742 1114.24 411.898 1092.93 433.023 C 1074.01 413.968 1054.06 407.356 1028.68 402.854 C 996.587 403.166 979.293 413.364 954.68 432.904 C 949.988 428.528 945.841 425.221 943.82 419.169 C 945.15 396.1 1002.74 382.339 1021.9 381.453 z"/>
<path transform="translate(0,0)" fill="rgb(27,61,91)" d="M 1017.19 427.335 C 1018.52 427.193 1019.85 427.085 1021.18 427.01 C 1040.59 425.969 1091.13 438.228 1061.98 463.802 C 1050.46 456.428 1043.24 452.68 1030.26 448.853 C 1011.28 444.23 1000.88 457.437 984.472 462.968 C 961.502 438.751 999.269 430.088 1017.19 427.335 z"/>
<path transform="translate(0,0)" fill="rgb(27,61,91)" d="M 1019.42 472.498 C 1026.41 470.608 1033.86 472.921 1038.55 478.436 C 1042.67 483.27 1044.05 489.859 1042.22 495.938 C 1040.4 502.017 1035.62 506.757 1029.52 508.527 C 1019.53 511.429 1009.1 505.626 1006.29 495.61 C 1003.48 485.595 1009.38 475.212 1019.42 472.498 z"/>
<path transform="translate(0,0)" fill="rgb(27,61,91)" d="M 1477.63 1558.53 C 1502.01 1557.75 1527.71 1556.57 1551.94 1558.54 C 1575.69 1560.47 1601.46 1567 1604.75 1594.81 C 1608.67 1628.06 1606.39 1661.14 1606.99 1694.51 C 1607.31 1712.56 1608.35 1730.64 1607.2 1748.66 C 1604.23 1785.52 1585.37 1794.45 1552.25 1797.07 C 1530.55 1797.87 1510.24 1796.89 1488.58 1796.6 C 1467.17 1796.53 1445.76 1796.65 1424.35 1796.96 C 1423.93 1717.65 1423.92 1638.34 1424.32 1559.03 C 1444.46 1559.24 1457.59 1559.32 1477.63 1558.53 z M 1479.94 1749.05 C 1499.96 1748.69 1528.83 1750.62 1547.42 1746.26 C 1548.19 1745.34 1549.13 1744.21 1550.24 1742.88 C 1554.05 1710.51 1553.1 1654.1 1550.3 1623.46 C 1549.83 1618.36 1549.2 1613.28 1548.41 1608.22 C 1527.3 1605.72 1500.18 1606.19 1478.41 1605.94 C 1478.37 1630.6 1478.4 1655.24 1478.53 1679.91 C 1478.64 1700.36 1476.69 1728.82 1479.94 1749.05 z"/>
<path transform="translate(0,0)" fill="rgb(27,61,91)" d="M 826.02 1558.46 C 832.13 1557.82 844.455 1558.06 851.043 1557.98 L 850.912 1693.18 C 850.923 1728.4 851.441 1761.79 850.24 1797.07 C 832.794 1797.28 815.087 1797.09 797.619 1797.06 C 797.481 1792.76 797.591 1788.49 797.601 1784.2 C 797.697 1740.14 796.149 1695.89 797.2 1651.84 C 787.298 1673.66 777.549 1695.54 767.955 1717.5 C 761.488 1732.5 753.924 1748.93 750.205 1764.72 C 736.751 1763.72 723.696 1764.37 710.268 1764.99 C 706.099 1753.67 699.46 1739.96 694.702 1728.27 C 684.014 1702.03 674.478 1677.48 660.964 1652.47 C 660.766 1668.25 660.359 1684.53 660.883 1700.25 C 661.876 1732.56 662.191 1764.88 661.828 1797.2 C 647.027 1797.43 622.869 1796.51 608.97 1797.94 C 607.29 1772.05 608.18 1738.13 608.178 1711.47 L 608.145 1560.52 C 617.961 1559.56 663.568 1558.96 672.103 1560.32 L 708 1640.98 C 713.521 1653.41 723.326 1677.25 729.478 1687.78 C 733.891 1681.15 741.716 1661.62 745.399 1653.67 C 758.953 1624.39 771.791 1585.95 788.523 1559 C 801.441 1559.09 813.129 1559.19 826.02 1558.46 z"/>
<path transform="translate(0,0)" fill="rgb(27,61,91)" d="M 1242.47 1558.53 C 1267.6 1558.29 1292.72 1558.24 1317.85 1558.4 C 1374.9 1559.17 1388.81 1564.5 1391.68 1624.23 C 1396.3 1720.53 1371.58 1720.58 1287.25 1717.08 L 1267.99 1717.28 C 1267.82 1743.84 1268.17 1770.41 1269.05 1796.96 L 1213.94 1796.75 C 1213.96 1771.18 1212.95 1746.53 1212.73 1721.19 C 1212.01 1667.19 1212.5 1613.18 1214.2 1559.2 C 1224.23 1559.26 1232.4 1559.26 1242.47 1558.53 z M 1268.13 1669.88 C 1291.24 1669.96 1310.68 1669.68 1333.81 1668.65 C 1336.68 1657.02 1339.72 1621.99 1334.13 1610.73 C 1333.02 1608.49 1329.77 1607.27 1327.41 1607.06 C 1311.84 1605.66 1282.99 1605.01 1267.74 1606.58 C 1267.53 1627.68 1267.66 1648.78 1268.13 1669.88 z"/>
<path transform="translate(0,0)" fill="rgb(27,61,91)" d="M 1810.95 1558.49 C 1819.4 1558.45 1827.85 1558.57 1836.29 1558.86 C 1828.33 1567.22 1820.68 1584.55 1813.71 1594.62 C 1795.67 1620.71 1779.53 1650.69 1761.48 1676.52 C 1776.66 1698.03 1791.28 1721.52 1805.42 1743.82 C 1815.5 1759.72 1829.08 1780.01 1837.09 1796.79 C 1821.36 1795.58 1793.32 1796.79 1775.88 1796.5 C 1766.03 1778.32 1741.4 1737.98 1728.48 1722.44 C 1723.93 1731.07 1715.44 1743.97 1710.18 1752.76 C 1701.57 1767.39 1693.18 1782.13 1684.98 1796.99 C 1676.07 1796.91 1667.16 1796.92 1658.25 1797.04 L 1621.86 1796.99 C 1644.63 1766.22 1663.11 1728.73 1685.12 1697.11 C 1689.86 1690.31 1693.47 1683.76 1698.81 1677.24 C 1694.7 1669.24 1688.46 1661.12 1683.77 1653.53 C 1668.35 1628.64 1636.23 1585.38 1627.16 1559.02 C 1646.94 1560.2 1666.84 1558.63 1686.78 1559.75 C 1697.28 1574.27 1722.48 1616.2 1730.8 1632.31 C 1736.54 1624.25 1741.84 1613.81 1746.73 1605.06 C 1755.72 1588.98 1764.24 1573.83 1774.94 1558.8 C 1785.39 1558.2 1800.17 1558.55 1810.95 1558.49 z"/>
<path transform="translate(0,0)" fill="rgb(27,61,91)" d="M 415.008 1558.39 C 468.978 1558.32 522.871 1559.61 576.744 1559.06 C 576.728 1574.34 576.818 1589.62 577.014 1604.9 C 563.251 1604.2 547.144 1605.6 533.181 1605.75 C 512.213 1605.97 491.258 1606 470.29 1606.12 C 471.185 1620.78 470.866 1639.11 470.996 1654.05 C 499.316 1653.69 527.641 1653.7 555.961 1654.1 L 556.016 1691.25 L 555.945 1700.96 C 543.694 1701.45 476.893 1699.68 471.503 1704.25 C 468.394 1713.38 470.11 1782.38 470.244 1796.92 C 452.271 1797.48 433.187 1797.19 415.132 1797.2 C 414.294 1749.16 415.642 1700.09 415.639 1651.99 C 415.638 1623.95 412.207 1585.52 415.008 1558.39 z"/>
<path transform="translate(0,0)" fill="rgb(27,61,91)" d="M 326.419 1558.46 C 341.449 1558.39 356.876 1558.84 371.956 1559.02 C 371.232 1602.07 373.679 1645.62 372.98 1688.97 C 372.57 1714.48 378.208 1769.07 355.639 1786.73 C 337.31 1801.07 302.413 1796.96 280.76 1796.57 C 269.576 1796.37 257.103 1798.17 245.951 1796.47 C 231.942 1794.24 224.369 1787.44 216.56 1776.5 C 201.702 1751.85 208.003 1720 207.325 1695.38 L 207.286 1694.32 C 225.953 1693.49 244.636 1693.07 263.322 1693.04 C 257.265 1735.03 260.949 1759.95 311.458 1746.45 C 313.739 1743.77 315.875 1740.68 317.966 1737.82 L 318.123 1625.07 C 318.063 1604.28 317.305 1580.6 318.261 1560.12 C 320.477 1558.12 322.612 1558.74 326.419 1558.46 z"/>
<path transform="translate(0,0)" fill="rgb(27,61,91)" d="M 880.677 1559.01 C 905.401 1558.11 932.461 1558.58 957.382 1558.58 L 1060.77 1558.72 C 1060.54 1574.45 1060.43 1590.19 1060.45 1605.92 C 1040.09 1605.19 1016.82 1605.87 996.279 1606.02 C 996.314 1650.43 996.661 1694.84 997.321 1739.25 C 997.324 1758.75 997.574 1778.24 998.072 1797.74 C 980.045 1797.22 960.119 1797.39 942.138 1797.59 C 941.894 1733.01 943.046 1671.15 941.861 1606.08 C 921.349 1605.76 900.833 1605.72 880.321 1605.98 C 879.908 1590.26 880.341 1574.72 880.677 1559.01 z"/>
<path transform="translate(0,0)" fill="rgb(27,61,91)" d="M 1079.72 1660.48 C 1111.62 1660.36 1144.69 1661.05 1176.81 1661.09 C 1176.22 1676.49 1176.44 1693.28 1176.62 1708.77 C 1169.96 1708.1 1161.06 1708.49 1154.19 1708.61 C 1120.97 1708.04 1089.12 1708.42 1055.86 1708.7 C 1055.54 1697 1055.56 1673.06 1057.49 1662.01 C 1064.9 1661.44 1072.31 1660.93 1079.72 1660.48 z"/>
</svg>